<?xml version="1.0" encoding="UTF-8"?>
<svg version="1.1" xmlns="http://www.w3.org/2000/svg" width="500" height="500">
<path d="M0 0 C165 0 330 0 500 0 C500 165 500 330 500 500 C335 500 170 500 0 500 C0 335 0 170 0 0 Z " fill="#F6F6F7" transform="translate(0,0)"/>
<path d="M0 0 C4.52425243 0.55352901 8.63199815 1.38396714 12.9375 2.875 C14.37416016 3.36613281 14.37416016 3.36613281 15.83984375 3.8671875 C17.51564546 4.46790752 19.18993047 5.07402071 20.84863281 5.72045898 C25.78769259 7.64005155 30.72006197 9.09230144 35.875 10.3125 C37.18960205 10.62562134 37.18960205 10.62562134 38.53076172 10.94506836 C48.81026864 13.30704592 59.20252385 15.03918934 69.59204102 16.8347168 C120.33569948 25.6078816 120.33569948 25.6078816 135 42 C135 42.66 135 43.32 135 44 C137.97 44.495 137.97 44.495 141 45 C141.66 43.68 142.32 42.36 143 41 C143.66 41 144.32 41 145 41 C145.226875 40.41089844 145.45375 39.82179687 145.6875 39.21484375 C148.34560895 34.7292849 153.59675337 32.56325658 158 30 C158.76441406 29.54238281 159.52882813 29.08476562 160.31640625 28.61328125 C171.4642644 22.46741859 184.33458784 19.89927152 196.88500977 18.66503906 C202.50460795 18.10824203 207.90233255 17.04306528 213.41015625 15.78125 C217.40320017 14.91225241 221.40765365 14.23315857 225.4375 13.5625 C235.47019445 11.85497653 245.33990887 9.53916817 254.83496094 5.8190918 C258.28402535 4.5142191 261.79692022 3.42290826 265.3125 2.3125 C266.01947021 2.08570557 266.72644043 1.85891113 267.45483398 1.62524414 C270.41331841 0.69851994 272.88043088 0 276 0 C276.64537084 15.48890018 276.25063273 30.45277743 266 43 C265.38125 43.886875 264.7625 44.77375 264.125 45.6875 C256.68736717 53.78139455 245.48225291 60.86935739 235.08984375 64.296875 C228.14732026 66.63267729 221.45319068 69.70375673 214.94921875 73.0546875 C212.89469426 74.05107012 210.82034796 74.87253916 208.6875 75.6875 C187.36223858 84.13217209 164.41653641 95.26247746 154 117 C150.37537506 126.23831135 149.43048253 134.64692811 149.51757812 144.50756836 C149.51538577 145.90860371 149.51137921 147.3096372 149.50572205 148.71066284 C149.49723458 151.69860724 149.50082847 154.68619024 149.5141449 157.67411613 C149.53466221 162.40261744 149.52442942 167.13076269 149.5098877 171.85926819 C149.48327052 181.8853786 149.48984973 191.9113695 149.5 201.9375 C149.51096683 212.78922944 149.51617084 223.64077309 149.48270559 234.4924708 C149.46935922 239.19010951 149.47524981 243.88720504 149.49607086 248.58481109 C149.50506472 251.50453676 149.49757717 254.42405343 149.48565865 257.34376144 C149.48251854 259.33683928 149.49929745 261.32991749 149.51670837 263.32292175 C149.46145143 271.42704616 148.70441703 275.04010594 143.1875 280.9375 C139.7723859 282.59626971 137.59734214 282.00978025 134 281 C130.51921979 278.06067449 127.20625456 275.12768642 126.74946022 270.41547489 C126.74912474 269.37192058 126.74878925 268.32836626 126.7484436 267.25318909 C126.74306076 266.05476883 126.73767792 264.85634857 126.73213196 263.62161255 C126.73625595 262.30474457 126.74037994 260.98787659 126.74462891 259.63110352 C126.74187901 258.23142798 126.73819912 256.831754 126.73365784 255.43208313 C126.72553986 252.41516069 126.72337899 249.39831239 126.72560501 246.38138008 C126.72843929 241.60168034 126.71407895 236.82212832 126.69662476 232.04246521 C126.64961794 218.44963835 126.62568025 204.85682052 126.61914062 191.26391602 C126.61537727 183.75846364 126.59724063 176.25317759 126.56404626 168.74779648 C126.54393239 164.00672885 126.54141339 159.26609323 126.55232644 154.52500069 C126.55495368 151.55797046 126.54083119 148.59118589 126.52224541 145.62421989 C126.5144776 143.61553543 126.5262846 141.60680424 126.53892517 139.59814453 C126.39890541 124.05211361 120.68405568 111.2066285 110 100 C107.6430447 97.8748709 105.17399748 95.9512188 102.625 94.0625 C101.93019531 93.54598877 101.23539062 93.02947754 100.51953125 92.49731445 C93.44035425 87.37846361 85.95925392 83.5481243 78 80 C77.31341309 79.69223633 76.62682617 79.38447266 75.91943359 79.06738281 C72.5179185 77.55013744 69.10631245 76.05859823 65.68359375 74.58984375 C62.51733348 73.23055367 59.37987601 71.81644935 56.25 70.375 C51.46471745 68.17752886 46.61257558 66.17324464 41.7265625 64.2109375 C38.99525757 62.99789376 36.5597253 61.53583518 34 60 C32.33620834 59.32619029 30.66953857 58.65944157 29 58 C18.90707734 52.61278083 11.83192616 46.88891827 6 37 C5.60683594 36.33871094 5.21367188 35.67742187 4.80859375 34.99609375 C-1.18085034 24.05596524 -0.22338025 12.08735336 0 0 Z " fill="#0D8FE9" transform="translate(112,109)"/>
<path d="M0 0 C0.1245984 9.11165724 -0.23339173 18.15808175 -0.8125 27.25 C-0.85634827 27.94498596 -0.90019653 28.63997192 -0.94537354 29.35601807 C-3.04860695 62.12321526 -7.80624921 94.88980513 -24 124 C-24.47953125 124.92167969 -24.9590625 125.84335937 -25.453125 126.79296875 C-29.49881276 134.49533583 -34.19125158 141.75936253 -39 149 C-40.0209375 150.54107422 -40.0209375 150.54107422 -41.0625 152.11328125 C-44.57478228 157.28658036 -44.57478228 157.28658036 -46 159 C-46.66 159 -47.32 159 -48 159 C-48.27150879 159.59224365 -48.54301758 160.1844873 -48.82275391 160.79467773 C-49.97945247 162.96150854 -51.16979483 164.4930186 -52.8359375 166.28515625 C-53.39925781 166.89262695 -53.96257812 167.50009766 -54.54296875 168.12597656 C-55.14753906 168.7650293 -55.75210938 169.40408203 -56.375 170.0625 C-57.00277344 170.72862305 -57.63054687 171.39474609 -58.27734375 172.08105469 C-73.24743176 187.81476839 -90.54397176 202.00572033 -109.22167969 213.14916992 C-110.11779968 213.68450851 -111.01391968 214.21984711 -111.93719482 214.77140808 C-112.61792053 215.17684341 -113.29864624 215.58227875 -114 216 C-114.07026329 199.12699201 -114.12307265 182.25403006 -114.15543652 165.38090897 C-114.17086695 157.54539329 -114.19188277 149.70996883 -114.22631836 141.87451172 C-114.25633844 135.04046684 -114.27560275 128.20648806 -114.28226548 121.37237906 C-114.28615653 117.75797825 -114.29521991 114.14376646 -114.31719017 110.52942657 C-114.34158997 106.48209965 -114.34196197 102.43509567 -114.34057617 98.38769531 C-114.351362 97.20589188 -114.36214783 96.02408844 -114.3732605 94.80647278 C-114.3241691 81.4890372 -111.42937267 70.2134425 -102.4375 60.125 C-89.85121984 49.1523455 -75.4679267 41.45686718 -59.98413086 35.38330078 C-51.86831848 32.19016074 -43.89831194 28.6975524 -36 25 C-35.26426758 24.65598145 -34.52853516 24.31196289 -33.77050781 23.95751953 C-21.76376825 18.24192779 -12.02544814 11.11990795 -2.67578125 1.64453125 C-1 0 -1 0 0 0 Z " fill="#0A62D7" transform="translate(391,162)"/>
<path d="M0 0 C3.7144645 3.10363859 7.24705123 6.16058982 10.4375 9.8125 C16.24526416 15.72215476 23.72850928 19.2065942 31 23 C32.38638672 23.74443359 32.38638672 23.74443359 33.80078125 24.50390625 C39.46169306 27.45943958 45.31078606 29.71392844 51.3125 31.88671875 C54 33 54 33 56 35 C57.75146944 35.69663921 59.52624395 36.33563565 61.3125 36.9375 C65.22487985 38.25585992 68.48236034 39.85097842 72 42 C73.134375 42.37125 74.26875 42.7425 75.4375 43.125 C91.05277133 48.77370611 104.67574048 61.26503544 112.23828125 75.84765625 C114.71493644 82.84579476 114.13542671 90.51137841 114.11352539 97.82006836 C114.11367142 99.09880829 114.11381744 100.37754822 114.1139679 101.69503784 C114.11425365 105.18419569 114.10839279 108.67331885 114.10139394 112.16246867 C114.09512347 115.81530628 114.09455368 119.46814478 114.09336853 123.12098694 C114.09026608 130.03041667 114.08206738 136.9398305 114.07201904 143.84925324 C114.06082412 151.71867113 114.05533895 159.58808981 114.05032361 167.45751369 C114.03988382 183.63835176 114.02230548 199.81917385 114 216 C110.64861661 214.69600381 107.75612213 213.33365322 104.77734375 211.3125 C103.60715698 210.51900146 103.60715698 210.51900146 102.41333008 209.70947266 C101.59630615 209.14534668 100.77928223 208.5812207 99.9375 208 C99.09276123 207.41911621 98.24802246 206.83823242 97.37768555 206.23974609 C90.58066945 201.51200774 84.21632743 196.47466199 78 191 C77.31292969 190.41089844 76.62585938 189.82179688 75.91796875 189.21484375 C73.9251453 187.49801214 71.9599824 185.7542384 70 184 C68.59427734 182.75089844 68.59427734 182.75089844 67.16015625 181.4765625 C24.3223224 143.09189633 4.08346998 88.39295828 0.87634277 31.81866455 C0.37680919 21.22012333 0.17206522 10.60815359 0 0 Z " fill="#0D83E5" transform="translate(109,161)"/>
<path d="M0 0 C2.375 -0.1875 2.375 -0.1875 5 0 C5.66 0.99 6.32 1.98 7 3 C8.051875 3.7115625 8.051875 3.7115625 9.125 4.4375 C9.74375 4.953125 10.3625 5.46875 11 6 C11 7.32 11 8.64 11 10 C11.66 10 12.32 10 13 10 C15 13 15 13 15 16 C15.66 16 16.32 16 17 16 C17.34933594 16.91523438 17.69867188 17.83046875 18.05859375 18.7734375 C18.74115234 20.55621094 18.74115234 20.55621094 19.4375 22.375 C19.88996094 23.55835938 20.34242188 24.74171875 20.80859375 25.9609375 C21.89271912 28.86036193 21.89271912 28.86036193 23 31 C23.10547857 32.86223239 23.14662312 34.72823315 23.15821838 36.59341431 C23.1680072 37.78255936 23.17779602 38.97170441 23.18788147 40.19688416 C23.19651466 42.16377953 23.19651466 42.16377953 23.20532227 44.17041016 C23.21489851 45.55985304 23.22490844 46.94929299 23.23532104 48.33872986 C23.26240367 52.11739783 23.28339501 55.89607834 23.30332303 59.67478991 C23.32516191 63.62130052 23.35256084 67.56777236 23.37937927 71.51425171 C23.42933458 78.9904746 23.47426286 86.46671899 23.51740164 93.94298398 C23.56674978 102.45317212 23.62167688 110.96332135 23.67708123 119.47347188 C23.79094484 136.98227864 23.89777432 154.4911215 24 172 C25.65 172.66 27.3 173.32 29 174 C29 174.66 29 175.32 29 176 C28.01 176.99 28.01 176.99 27 178 C28.27875 178.165 29.5575 178.33 30.875 178.5 C31.59429687 178.5928125 32.31359375 178.685625 33.0546875 178.78125 C35.00498344 179.0372485 35.00498344 179.0372485 37 179 C39.32559002 173.41858395 40.1266547 169.14487382 40.14526367 163.06005859 C40.14862228 162.37018356 40.1519809 161.68030853 40.15544128 160.9695282 C40.16491845 158.69581286 40.16689236 156.42217134 40.16796875 154.1484375 C40.17118214 152.56710785 40.17454628 150.98577849 40.17805481 149.40444946 C40.18403694 146.09417023 40.18589551 142.78391707 40.18530273 139.47363281 C40.18520083 135.22527519 40.19888581 130.97708365 40.21607494 126.72876549 C40.22717062 123.46547674 40.22922274 120.20222857 40.22869301 116.93892288 C40.22987554 115.37197926 40.23431256 113.80503467 40.24202538 112.23810959 C40.25178207 110.05233687 40.24896529 107.86693049 40.24291992 105.68115234 C40.24434494 104.43635101 40.24576996 103.19154968 40.24723816 101.9090271 C40.30414735 98.87435695 40.30414735 98.87435695 38 97 C38.99 96.67 39.98 96.34 41 96 C40.99333817 95.22849609 40.98667633 94.45699219 40.97981262 93.66210938 C40.91951905 86.36541295 40.8739334 79.06883858 40.84456348 71.7719574 C40.82895612 68.02120268 40.80780907 64.27065508 40.77368164 60.52001953 C40.74091077 56.89548731 40.72310997 53.2711534 40.71536827 49.64648438 C40.70985636 48.26868573 40.69909339 46.89089704 40.68280983 45.51318359 C40.59679128 37.9286908 40.81036247 31.92169221 44 25 C44.39080797 23.01043215 44.74850872 21.01193023 45 19 C45.66 19 46.32 19 47 19 C46.67 17.35 46.34 15.7 46 14 C47.32 14 48.64 14 50 14 C50.226875 13.071875 50.45375 12.14375 50.6875 11.1875 C52.21177941 7.48567857 53.36606505 6.54442235 57 5 C57.66 5.33 58.32 5.66 59 6 C58.56429687 6.43828125 58.12859375 6.8765625 57.6796875 7.328125 C46.4194015 19.3195984 43.69407464 32.01645996 43.74462891 47.93994141 C43.74187494 49.34023746 43.73819258 50.74053195 43.73365784 52.14082336 C43.72558187 55.14239238 43.72336819 58.14388706 43.72560501 61.14546585 C43.72845021 65.89451375 43.7140428 70.64341436 43.69662476 75.39242554 C43.64970789 88.89180318 43.62564966 102.39116937 43.61914062 115.890625 C43.6153888 123.35686977 43.59735524 130.82294642 43.56404626 138.28911912 C43.54385424 143.00760635 43.54145023 147.7256594 43.55232644 152.44417214 C43.55493623 155.38031885 43.54091771 158.3162133 43.52224541 161.25229454 C43.5144009 163.25731531 43.52634992 165.26238308 43.53892517 167.26737976 C43.46432441 175.38843406 42.71545462 179.02830713 37.1875 184.9375 C33.7723859 186.59626971 31.59734214 186.00978025 28 185 C24.51921979 182.06067449 21.20625456 179.12768642 20.74946022 174.41547489 C20.74912474 173.37192058 20.74878925 172.32836626 20.7484436 171.25318909 C20.74306076 170.05476883 20.73767792 168.85634857 20.73213196 167.62161255 C20.73625595 166.30474457 20.74037994 164.98787659 20.74462891 163.63110352 C20.74187901 162.23142798 20.73819912 160.831754 20.73365784 159.43208313 C20.72553986 156.41516069 20.72337899 153.39831239 20.72560501 150.38138008 C20.72843929 145.60168034 20.71407895 140.82212832 20.69662476 136.04246521 C20.64961794 122.44963835 20.62568025 108.85682052 20.61914062 95.26391602 C20.61537727 87.75846364 20.59724063 80.25317759 20.56404626 72.74779648 C20.54393239 68.00672885 20.54141339 63.26609323 20.55232644 58.52500069 C20.55495368 55.55797046 20.54083119 52.59118589 20.52224541 49.62421989 C20.5144776 47.61553543 20.5262846 45.60680424 20.53892517 43.59814453 C20.38480955 26.4870865 13.34697574 13.59294879 1.625 1.5625 C1.08875 1.046875 0.5525 0.53125 0 0 Z " fill="#5984C6" transform="translate(218,205)"/>
<path d="M0 0 C4.52425243 0.55352901 8.63199815 1.38396714 12.9375 2.875 C14.37416016 3.36613281 14.37416016 3.36613281 15.83984375 3.8671875 C17.51564546 4.46790752 19.18993047 5.07402071 20.84863281 5.72045898 C25.78773259 7.64006709 30.7200828 9.09204861 35.875 10.3125 C37.16893677 10.62127075 37.16893677 10.62127075 38.48901367 10.9362793 C52.86105203 14.2417622 67.46424416 16.54194373 82 19 C82 19.33 82 19.66 82 20 C65.02731637 20.52075279 65.02731637 20.52075279 57 17 C54.51392349 16.63199525 52.04447496 16.43613278 49.5390625 16.24609375 C39.24872232 15.24872232 39.24872232 15.24872232 37 13 C35.01821847 13 33.0363906 13.00190044 31.0546875 13.01953125 C27.15662677 12.98247744 24.58721783 12.36033821 21.25 10.3125 C16.72422271 8.48478225 13.54063625 9.59744791 9 11 C8.7525 10.030625 8.505 9.06125 8.25 8.0625 C7.63125 6.5465625 7.63125 6.5465625 7 5 C4.96756452 4.03122943 4.96756452 4.03122943 3 4 C3 6.31 3 8.62 3 11 C3.66 11.33 4.32 11.66 5 12 C6.5533251 15.92899877 7.52302381 19.80260952 8 24 C7.67 24.66 7.34 25.32 7 26 C7.54216107 28.234972 7.54216107 28.234972 8.4375 30.625 C8.72496094 31.44226563 9.01242188 32.25953125 9.30859375 33.1015625 C9.53675781 33.72804687 9.76492187 34.35453125 10 35 C11.65 35.33 13.3 35.66 15 36 C15.89130413 38.6739124 16.47731534 41.23723823 17 44 C17.94875 43.95875 18.8975 43.9175 19.875 43.875 C23 44 23 44 25 46 C24.34 46.66 23.68 47.32 23 48 C23.33 48.99 23.66 49.98 24 51 C25.98 51 27.96 51 30 51 C30 51.66 30 52.32 30 53 C30.66 53 31.32 53 32 53 C32.23460937 53.61359375 32.46921875 54.2271875 32.7109375 54.859375 C34.3390582 57.5630421 35.72633836 58.09053534 38.625 59.25 C39.44226563 59.58515625 40.25953125 59.9203125 41.1015625 60.265625 C41.72804687 60.50796875 42.35453125 60.7503125 43 61 C43 60.34 43 59.68 43 59 C45.97 59.495 45.97 59.495 49 60 C49 61.98 49 63.96 49 66 C50.60875 65.9690625 50.60875 65.9690625 52.25 65.9375 C55.14790424 65.9857984 57.28612141 66.13155885 60 67 C60 68.32 60 69.64 60 71 C61.32 71 62.64 71 64 71 C64 71.66 64 72.32 64 73 C58.6748411 71.32885257 53.57499059 69.22795427 48.4375 67.0625 C47.60025391 66.71509766 46.76300781 66.36769531 45.90039062 66.00976562 C41.72125927 64.25274366 37.86501958 62.38422122 34 60 C32.33620834 59.32619029 30.66953857 58.65944157 29 58 C18.90707734 52.61278083 11.83192616 46.88891827 6 37 C5.60683594 36.33871094 5.21367188 35.67742187 4.80859375 34.99609375 C-1.18085034 24.05596524 -0.22338025 12.08735336 0 0 Z " fill="#13BDF4" transform="translate(112,109)"/>
<path d="M0 0 C1.93728332 3.26321273 2.24773459 5.68254596 2.24050903 9.45428467 C2.24325836 10.56203751 2.24600769 11.66979034 2.24884033 12.81111145 C2.2380545 14.62695992 2.2380545 14.62695992 2.22705078 16.47949219 C2.22734283 17.75779404 2.22763489 19.03609589 2.22793579 20.35313416 C2.22850951 23.85490803 2.21675207 27.35654483 2.20278788 30.85828686 C2.19028379 34.51914462 2.18911027 38.18000553 2.18673706 41.84088135 C2.18052134 48.77168324 2.16410929 55.70242201 2.14403808 62.63319612 C2.12168193 70.52430277 2.11068637 78.41541244 2.10064721 86.30654287 C2.07974314 102.53773219 2.04456538 118.76885804 2 135 C-1.35138339 133.69600381 -4.24387787 132.33365322 -7.22265625 130.3125 C-8.39284302 129.51900146 -8.39284302 129.51900146 -9.58666992 128.70947266 C-10.40369385 128.14534668 -11.22071777 127.5812207 -12.0625 127 C-13.32960815 126.12867432 -13.32960815 126.12867432 -14.62231445 125.23974609 C-21.41933055 120.51200774 -27.78367257 115.47466199 -34 110 C-34.68707031 109.41089844 -35.37414062 108.82179688 -36.08203125 108.21484375 C-38.0748547 106.49801214 -40.0400176 104.7542384 -42 103 C-43.40572266 101.75089844 -43.40572266 101.75089844 -44.83984375 100.4765625 C-53.5820936 92.6414221 -61.33993428 84.26278074 -68.5625 75 C-69.00480957 74.43555176 -69.44711914 73.87110352 -69.90283203 73.28955078 C-73 69.24263397 -73 69.24263397 -73 67 C-71.68 67.66 -70.36 68.32 -69 69 C-69 69.99 -69 70.98 -69 72 C-68.01 72 -67.02 72 -66 72 C-66 72.66 -66 73.32 -66 74 C-65.01 74.33 -64.02 74.66 -63 75 C-63.33 75.99 -63.66 76.98 -64 78 C-62.68 78.66 -61.36 79.32 -60 80 C-59.505 79.505 -59.505 79.505 -59 79 C-57.33382885 78.95936168 -55.66611905 78.957279 -54 79 C-54.33 80.65 -54.66 82.3 -55 84 C-54.175 84.61875 -53.35 85.2375 -52.5 85.875 C-51.2625 86.926875 -51.2625 86.926875 -50 88 C-50 88.66 -50 89.32 -50 90 C-48.68 90.33 -47.36 90.66 -46 91 C-46.33 92.32 -46.66 93.64 -47 95 C-45.906875 95.144375 -44.81375 95.28875 -43.6875 95.4375 C-40 96 -40 96 -37 97 C-37.66 98.98 -38.32 100.96 -39 103 C-37.906875 102.835 -36.81375 102.67 -35.6875 102.5 C-32 102 -32 102 -29 102 C-29.66 103.98 -30.32 105.96 -31 108 C-30.01 108.495 -30.01 108.495 -29 109 C-28.566875 109.78375 -28.13375 110.5675 -27.6875 111.375 C-24.18191887 116.8281262 -18.98001558 117.68236945 -13 119 C-13 119.99 -13 120.98 -13 122 C-12.67 122.99 -12.34 123.98 -12 125 C-11.01 125 -10.02 125 -9 125 C-9 125.66 -9 126.32 -9 127 C-6.36 126.67 -3.72 126.34 -1 126 C-1.00222061 125.36537842 -1.00444122 124.73075684 -1.00672913 124.0769043 C-1.03448419 115.71795066 -1.05207843 107.35899168 -1.0625 99 C-1.06335602 98.31839561 -1.06421204 97.63679123 -1.06509399 96.93453217 C-1.09045554 73.99391547 -0.8852967 51.06230256 -0.5 28.125 C-0.48804218 27.41277283 -0.47608437 26.70054565 -0.46376419 25.96673584 C-0.31767422 17.31100125 -0.16327776 8.65542779 0 0 Z " fill="#467FC5" transform="translate(221,242)"/>
<path d="M0 0 C0.33 0 0.66 0 1 0 C1 43.56 1 87.12 1 132 C1.66 132 2.32 132 3 132 C3 131.34 3 130.68 3 130 C4.98 129.67 6.96 129.34 9 129 C9.33 128.01 9.66 127.02 10 126 C12.82115184 124.92990792 14.90544541 125 18 125 C18 124.34 18 123.68 18 123 C18.99 123 19.98 123 21 123 C21 121.35 21 119.7 21 118 C22.32 118.33 23.64 118.66 25 119 C25.2475 118.360625 25.495 117.72125 25.75 117.0625 C27 115 27 115 29.125 114.25 C29.74375 114.1675 30.3625 114.085 31 114 C31 113.34 31 112.68 31 112 C32.3125 110.375 32.3125 110.375 34 109 C34.99 109 35.98 109 37 109 C37 108.34 37 107.68 37 107 C42.19230769 102.26923077 42.19230769 102.26923077 46 101 C46.495 99.515 46.495 99.515 47 98 C47.99 98 48.98 98 50 98 C49.67 96.68 49.34 95.36 49 94 C50.65 94 52.3 94 54 94 C54.103125 93.4225 54.20625 92.845 54.3125 92.25 C55.11175587 89.63425351 56.28081425 88.11592092 58 86 C58.515625 85.2575 59.03125 84.515 59.5625 83.75 C60.036875 83.1725 60.51125 82.595 61 82 C61.66 82 62.32 82 63 82 C63.495 80.02 63.495 80.02 64 78 C65.32 78 66.64 78 68 78 C67.34 79.65 66.68 81.3 66 83 C65.34 83 64.68 83 64 83 C63.72849121 83.59224365 63.45698242 84.1844873 63.17724609 84.79467773 C62.02054753 86.96150854 60.83020517 88.4930186 59.1640625 90.28515625 C58.60074219 90.89262695 58.03742188 91.50009766 57.45703125 92.12597656 C56.55017578 93.08455566 56.55017578 93.08455566 55.625 94.0625 C54.99722656 94.72862305 54.36945313 95.39474609 53.72265625 96.08105469 C38.75256824 111.81476839 21.45602824 126.00572033 2.77832031 137.14916992 C1.88220032 137.68450851 0.98608032 138.21984711 0.06280518 138.77140808 C-0.61792053 139.17684341 -1.29864624 139.58227875 -2 140 C-2.04679121 123.07516737 -2.08202368 106.15035503 -2.10362434 89.22547245 C-2.113922 81.36635738 -2.12795336 73.50728258 -2.15087891 65.64819336 C-2.17085914 58.79549981 -2.18372741 51.94283545 -2.18817699 45.09011358 C-2.19077654 41.46411776 -2.19685493 37.83820539 -2.21146011 34.2122364 C-2.22766013 30.1571602 -2.22797672 26.10222763 -2.22705078 22.04711914 C-2.23424133 20.85452988 -2.24143188 19.66194061 -2.24884033 18.43321228 C-2.23288665 11.96531035 -1.67331819 6.25418407 0 0 Z " fill="#4370AF" transform="translate(279,238)"/>
<path d="M0 0 C3.7144645 3.10363859 7.24705123 6.16058982 10.4375 9.8125 C16.24526416 15.72215476 23.72850928 19.2065942 31 23 C32.38638672 23.74443359 32.38638672 23.74443359 33.80078125 24.50390625 C39.46169306 27.45943958 45.31078606 29.71392844 51.3125 31.88671875 C54 33 54 33 56 35 C58.76156555 36.06745961 61.55887852 36.97742077 64.37109375 37.90234375 C66.92866739 38.97021625 68.23834418 39.90392816 70 42 C67.6568787 41.74438677 65.32156597 41.40729228 63 41 C62.67 40.34 62.34 39.68 62 39 C58.47229151 37.88574936 54.9058867 37.00693431 51.3203125 36.09765625 C48.09739547 35.0321978 47.17963897 34.38722364 45 32 C42.99704361 31.2934214 42.99704361 31.2934214 40.875 30.9375 C39.59625 30.628125 38.3175 30.31875 37 30 C36.505 29.01 36.505 29.01 36 28 C35.21625 27.855625 34.4325 27.71125 33.625 27.5625 C31 27 31 27 29.70703125 25.5546875 C26.72709025 22.84069089 22.77125257 22.7021427 18.91015625 21.94140625 C15.59754878 20.86981108 14.12210734 19.73572874 12 17 C12 16.01 12 15.02 12 14 C9.69 14.33 7.38 14.66 5 15 C4.97534712 19.68139254 4.95716261 24.36274759 4.94506836 29.04418945 C4.94002843 30.63794614 4.9331965 32.23169819 4.92456055 33.82543945 C4.91248001 36.11150253 4.90676845 38.39750467 4.90234375 40.68359375 C4.89718246 41.40026718 4.89202118 42.11694061 4.88670349 42.85533142 C4.88650737 44.57063672 4.93807993 46.28581266 5 48 C5.33 48.33 5.66 48.66 6 49 C6.08631874 50.34267413 6.10706473 51.68974322 6.09765625 53.03515625 C6.09282227 54.24848633 6.09282227 54.24848633 6.08789062 55.48632812 C6.07951172 56.33646484 6.07113281 57.18660156 6.0625 58.0625 C6.05798828 58.91650391 6.05347656 59.77050781 6.04882812 60.65039062 C6.03700373 62.76695663 6.01906769 64.88348685 6 67 C6.66 67 7.32 67 8 67 C8.81492672 70.70780431 9.6265084 74.41633316 10.4375 78.125 C10.66759766 79.17171875 10.89769531 80.2184375 11.13476562 81.296875 C12.92993117 89.51821285 12.92993117 89.51821285 13.53515625 93.6796875 C13.76525391 94.82824219 13.76525391 94.82824219 14 96 C14.66 96.33 15.32 96.66 16 97 C15.34 97.99 14.68 98.98 14 100 C12.82841483 96.35434111 11.70556688 92.69612881 10.61181641 89.02636719 C10.21246595 87.70369807 9.80369042 86.38382767 9.38427734 85.06738281 C0.7583504 57.82974998 0.31084484 28.33511538 0 0 Z " fill="#3FA6D8" transform="translate(109,161)"/>
<path d="M0 0 C0.64537084 15.48890018 0.25063273 30.45277743 -10 43 C-10.61875 43.886875 -11.2375 44.77375 -11.875 45.6875 C-16.65426664 50.88846663 -22.69595147 54.54637648 -28.625 58.3125 C-29.68976563 58.98925781 -30.75453125 59.66601562 -31.8515625 60.36328125 C-35.00442734 62.00230156 -37.48770005 62.63611307 -41 63 C-41 62.01 -41 61.02 -41 60 C-38.03 59.34 -35.06 58.68 -32 58 C-32 57.34 -32 56.68 -32 56 C-30.68 56 -29.36 56 -28 56 C-27.773125 55.38125 -27.54625 54.7625 -27.3125 54.125 C-26 52 -26 52 -23.5625 51.375 C-20.81618595 50.26758925 -20.81618595 50.26758925 -20.18359375 47.76171875 C-19.72460874 45.94938367 -19.26628453 44.13688111 -18.80859375 42.32421875 C-17.69373916 39.11968502 -15.92157098 38.56767223 -13 37 C-11.81831633 34.99990644 -10.89288707 32.98000158 -9.9921875 30.83984375 C-9 29 -9 29 -6 27 C-2.41186238 19.57838201 -2.33754227 11.07773582 -2 3 C-2.77085937 3.2165625 -3.54171875 3.433125 -4.3359375 3.65625 C-5.33882813 3.9346875 -6.34171875 4.213125 -7.375 4.5 C-8.87160156 4.91765625 -8.87160156 4.91765625 -10.3984375 5.34375 C-13 6 -13 6 -15 6 C-15 6.66 -15 7.32 -15 8 C-16.01320313 8.18175781 -16.01320313 8.18175781 -17.046875 8.3671875 C-17.93890625 8.53476563 -18.8309375 8.70234375 -19.75 8.875 C-21.07257813 9.11863281 -21.07257813 9.11863281 -22.421875 9.3671875 C-24.88793534 9.97249322 -26.77256249 10.80955323 -29 12 C-34.48621414 13.93631087 -39.26641957 14.23402369 -45 14 C-41.69552834 11.79701889 -38.6018758 10.9963022 -34.8125 10.0625 C-28.86059995 8.56042421 -28.86059995 8.56042421 -23.0625 6.5625 C-18.99024122 4.96467121 -14.85743856 3.62958979 -10.6875 2.3125 C-9.98052979 2.08570557 -9.27355957 1.85891113 -8.54516602 1.62524414 C-5.58668159 0.69851994 -3.11956912 0 0 0 Z " fill="#1C7FD7" transform="translate(388,109)"/>
<path d="M0 0 C1.32 0 2.64 0 4 0 C3.34 1.65 2.68 3.3 2 5 C1.34 5 0.68 5 0 5 C-0.27150879 5.59224365 -0.54301758 6.1844873 -0.82275391 6.79467773 C-1.97945247 8.96150854 -3.16979483 10.4930186 -4.8359375 12.28515625 C-5.39925781 12.89262695 -5.96257812 13.50009766 -6.54296875 14.12597656 C-7.14753906 14.7650293 -7.75210938 15.40408203 -8.375 16.0625 C-9.00277344 16.72862305 -9.63054687 17.39474609 -10.27734375 18.08105469 C-22.21442843 30.62705126 -35.4114596 41.33233254 -49.4375 51.4375 C-49.99228027 51.838479 -50.54706055 52.23945801 -51.11865234 52.65258789 C-61.46244308 60 -61.46244308 60 -65 60 C-65 58.35 -65 56.7 -65 55 C-64.67 55.66 -64.34 56.32 -64 57 C-63.01 57 -62.02 57 -61 57 C-61 55.35 -61 53.7 -61 52 C-58.03 51.505 -58.03 51.505 -55 51 C-54.67 50.01 -54.34 49.02 -54 48 C-51.17884816 46.92990792 -49.09455459 47 -46 47 C-46 46.34 -46 45.68 -46 45 C-45.01 45 -44.02 45 -43 45 C-43 43.35 -43 41.7 -43 40 C-41.68 40.33 -40.36 40.66 -39 41 C-38.7525 40.360625 -38.505 39.72125 -38.25 39.0625 C-37 37 -37 37 -34.875 36.25 C-34.25625 36.1675 -33.6375 36.085 -33 36 C-33 35.34 -33 34.68 -33 34 C-31.6875 32.375 -31.6875 32.375 -30 31 C-29.01 31 -28.02 31 -27 31 C-27 30.34 -27 29.68 -27 29 C-21.80769231 24.26923077 -21.80769231 24.26923077 -18 23 C-17.505 21.515 -17.505 21.515 -17 20 C-16.01 20 -15.02 20 -14 20 C-14.495 18.02 -14.495 18.02 -15 16 C-13.35 16 -11.7 16 -10 16 C-9.896875 15.4225 -9.79375 14.845 -9.6875 14.25 C-8.88824413 11.63425351 -7.71918575 10.11592092 -6 8 C-5.484375 7.2575 -4.96875 6.515 -4.4375 5.75 C-3.963125 5.1725 -3.48875 4.595 -3 4 C-2.34 4 -1.68 4 -1 4 C-0.67 2.68 -0.34 1.36 0 0 Z " fill="#2455B3" transform="translate(343,316)"/>
<path d="M0 0 C1.98 0.99 1.98 0.99 4 2 C4 2.99 4 3.98 4 5 C4.99 5 5.98 5 7 5 C7 5.66 7 6.32 7 7 C7.99 7.33 8.98 7.66 10 8 C9.67 8.99 9.34 9.98 9 11 C10.32 11.66 11.64 12.32 13 13 C13.33 12.67 13.66 12.34 14 12 C15.66617115 11.95936168 17.33388095 11.957279 19 12 C18.67 13.65 18.34 15.3 18 17 C18.825 17.61875 19.65 18.2375 20.5 18.875 C21.325 19.57625 22.15 20.2775 23 21 C23 21.66 23 22.32 23 23 C24.32 23.33 25.64 23.66 27 24 C26.67 25.32 26.34 26.64 26 28 C27.6396875 28.2165625 27.6396875 28.2165625 29.3125 28.4375 C33 29 33 29 36 30 C35.34 31.98 34.68 33.96 34 36 C35.6396875 35.7525 35.6396875 35.7525 37.3125 35.5 C41 35 41 35 44 35 C43.34 36.98 42.68 38.96 42 41 C42.99 41.495 42.99 41.495 44 42 C41 43 41 43 38.75 42.5 C35.50101304 40.7278253 33.40543695 38.5658716 30.8671875 35.90234375 C29.09384966 34.09561671 27.25733353 32.49300466 25.3125 30.875 C15.73214543 22.57573935 6.94381975 12.60861351 0 2 C0 1.34 0 0.68 0 0 Z " fill="#1962CB" transform="translate(148,309)"/>
<path d="M0 0 C2.375 -0.1875 2.375 -0.1875 5 0 C5.66 0.99 6.32 1.98 7 3 C8.051875 3.7115625 8.051875 3.7115625 9.125 4.4375 C9.74375 4.953125 10.3625 5.46875 11 6 C11 7.32 11 8.64 11 10 C11.66 10 12.32 10 13 10 C15 13 15 13 15 16 C15.66 16 16.32 16 17 16 C21.41821785 25.52211479 22.71115089 33.64867668 22.56762695 44.06176758 C22.56621264 45.52179414 22.56701593 46.98182424 22.56983948 48.44184875 C22.57126012 52.36276217 22.54209321 56.28289347 22.50696969 60.20362687 C22.47547748 64.31683662 22.4727576 68.43006902 22.46684265 72.54338074 C22.45137078 80.31338188 22.4104337 88.08302661 22.3600952 95.8528716 C22.30399302 104.70664208 22.27666303 113.56043059 22.25161803 122.41433489 C22.19951094 140.60975782 22.11169987 158.80485014 22 177 C21.67 177 21.34 177 21 177 C20.99853344 176.26892406 20.99706688 175.53784813 20.99555588 174.78461838 C20.95842372 156.95494277 20.89932441 139.12546204 20.81609726 121.2959404 C20.77637216 112.67352761 20.74394663 104.05120523 20.72900391 95.42871094 C20.71595341 87.90897251 20.68890258 80.38943354 20.64538693 72.86980748 C20.62284809 68.89213758 20.60708473 64.91471299 20.60811615 60.93697357 C20.60886729 57.18412213 20.59073704 53.4318114 20.55883217 49.67910004 C20.54640521 47.66326142 20.55336169 45.64733163 20.56114197 43.63146973 C20.36712587 26.50496753 13.36305704 13.60945328 1.625 1.5625 C1.08875 1.046875 0.5525 0.53125 0 0 Z " fill="#6E99CD" transform="translate(218,205)"/>
<path d="M0 0 C0.33 0 0.66 0 1 0 C1.33 46.53 1.66 93.06 2 141 C3.65 141.66 5.3 142.32 7 143 C7 143.66 7 144.32 7 145 C6.01 145.99 6.01 145.99 5 147 C7.64 147.33 10.28 147.66 13 148 C13 149.65 13 151.3 13 153 C8.24967963 152.53428232 4.87839357 151.85175998 1 149 C-0.35114557 146.29770885 -0.12283264 144.20551586 -0.12025452 141.17880249 C-0.12162918 139.93917252 -0.12300385 138.69954254 -0.12442017 137.42234802 C-0.12088079 136.04116797 -0.11724598 134.65998817 -0.11352539 133.27880859 C-0.11324344 131.83025616 -0.1134014 130.38170359 -0.1139679 128.93315125 C-0.11425557 124.99330024 -0.10836371 121.05347949 -0.10139394 117.11363554 C-0.09515538 112.99898652 -0.0945562 108.88433686 -0.09336853 104.76968384 C-0.0902567 96.97468933 -0.0820453 89.17970879 -0.07201904 81.38472044 C-0.06085331 72.51180974 -0.05534629 63.63889837 -0.05032361 54.76598239 C-0.03986257 36.51064699 -0.02226598 18.25532462 0 0 Z " fill="#1968C4" transform="translate(240,236)"/>
<path d="M0 0 C0 0.33 0 0.66 0 1 C-4.0527516 1.98248524 -7.83861737 2.08159574 -12 2 C-12 2.66 -12 3.32 -12 4 C-15.63 4 -19.26 4 -23 4 C-23 4.66 -23 5.32 -23 6 C-23.60328125 6.04898438 -24.2065625 6.09796875 -24.828125 6.1484375 C-25.62734375 6.22320312 -26.4265625 6.29796875 -27.25 6.375 C-28.03890625 6.44460937 -28.8278125 6.51421875 -29.640625 6.5859375 C-32.10427696 7.01830026 -33.79188892 7.86032977 -36 9 C-38.32495277 9.38749213 -40.65851268 9.72982839 -43 10 C-43.33 10.99 -43.66 11.98 -44 13 C-46.64 13 -49.28 13 -52 13 C-52 12.34 -52 11.68 -52 11 C-53.093125 11.45375 -54.18625 11.9075 -55.3125 12.375 C-60.40999831 14.30600923 -65.63160744 15.16118866 -71 16 C-69.07316354 12.14632709 -63.66930963 11.56898609 -59.74609375 10.234375 C-58.50988281 9.82703125 -57.27367187 9.4196875 -56 9 C-55.08347656 8.69578125 -54.16695313 8.3915625 -53.22265625 8.078125 C-47.03373995 6.2090532 -40.89327311 5.43814029 -34.48925781 4.77099609 C-28.56510113 4.13372044 -22.83963634 2.98231443 -17.02734375 1.6640625 C-11.34696917 0.41804485 -5.82703224 -0.14567581 0 0 Z " fill="#1F91DC" transform="translate(343,123)"/>
<path d="M0 0 C19.32003858 1.35579218 35.49575762 8.40421057 50 21 C49.01 21.33 48.02 21.66 47 22 C46.34 21.67 45.68 21.34 45 21 C45 20.34 45 19.68 45 19 C42.03 19 39.06 19 36 19 C36 17.35 36 15.7 36 14 C32.37114676 13.84850702 32.37114676 13.84850702 29 15 C28.7525 14.195625 28.505 13.39125 28.25 12.5625 C27.27761141 9.828919 27.27761141 9.828919 24.875 9.1875 C24.25625 9.125625 23.6375 9.06375 23 9 C23 8.34 23 7.68 23 7 C21.845 7.0825 20.69 7.165 19.5 7.25 C15.24754013 7.27249979 12.61674918 6.00354459 8.96484375 3.95703125 C5.99762473 2.51176552 3.26983734 2.27248644 0 2 C0 1.34 0 0.68 0 0 Z " fill="#13A4E9" transform="translate(196,129)"/>
<path d="M0 0 C0 0.66 0 1.32 0 2 C-4.38461538 5 -4.38461538 5 -7 5 C-7.33 6.65 -7.66 8.3 -8 10 C-9.98 10 -11.96 10 -14 10 C-14 10.66 -14 11.32 -14 12 C-16.97 12.66 -19.94 13.32 -23 14 C-23.0825 14.78375 -23.165 15.5675 -23.25 16.375 C-24 19 -24 19 -25.53125 20.15625 C-29.08248602 21.36996358 -32.54651862 21.21006229 -36.25 21.125 C-36.99507813 21.11597656 -37.74015625 21.10695312 -38.5078125 21.09765625 C-40.33868059 21.07418358 -42.16938238 21.03831525 -44 21 C-42.57276854 18.14553707 -41.00911563 18.15738276 -38 17.125 C-30.75217144 14.44151985 -23.83577091 11.16460839 -16.875 7.8125 C-15.75996094 7.27705566 -14.64492188 6.74161133 -13.49609375 6.18994141 C-0.71332692 0 -0.71332692 0 0 0 Z " fill="#297BCF" transform="translate(372,179)"/>
<path d="M0 0 C1.33496612 0.26266695 2.66788705 0.53572653 4 0.8125 C5.11375 1.03873047 5.11375 1.03873047 6.25 1.26953125 C8.51889131 1.8722055 10.57721353 2.58125688 12.7578125 3.4296875 C17.06179651 5.075535 21.39428375 6.25166892 25.875 7.3125 C26.73762451 7.51834717 27.60024902 7.72419434 28.48901367 7.9362793 C42.86105203 11.2417622 57.46424416 13.54194373 72 16 C72 16.33 72 16.66 72 17 C55.02731637 17.52075279 55.02731637 17.52075279 47 14 C44.51392349 13.63199525 42.04447496 13.43613278 39.5390625 13.24609375 C29.24872232 12.24872232 29.24872232 12.24872232 27 10 C25.01562116 10 23.03122577 10.00116369 21.046875 10.01171875 C15.59756057 9.98052038 12.45511715 8.13336439 8.00390625 5.2109375 C5.45622034 3.6714002 2.86157656 2.78693356 0 2 C0 1.34 0 0.68 0 0 Z " fill="#55BFDF" transform="translate(122,112)"/>
<path d="M0 0 C0.99 0.33 1.98 0.66 3 1 C3 1.66 3 2.32 3 3 C3.8353125 3.37125 3.8353125 3.37125 4.6875 3.75 C7 5 7 5 9.1875 6.9375 C12.27081383 9.19859681 14.89324978 10.04530296 18.5078125 11.140625 C22.87886889 12.64788583 26.91896427 14.84446338 31 17 C31 16.34 31 15.68 31 15 C32.98 15.33 34.96 15.66 37 16 C37 17.98 37 19.96 37 22 C38.0725 21.979375 39.145 21.95875 40.25 21.9375 C43.14790424 21.9857984 45.28612141 22.13155885 48 23 C48 24.32 48 25.64 48 27 C49.32 27 50.64 27 52 27 C52 27.66 52 28.32 52 29 C46.6748411 27.32885257 41.57499059 25.22795427 36.4375 23.0625 C35.60025391 22.71509766 34.76300781 22.36769531 33.90039062 22.00976562 C29.72125927 20.25274366 25.86501958 18.38422122 22 16 C20.33620834 15.32619029 18.66953857 14.65944157 17 14 C10.74279178 10.66013966 5.12925421 6.90624316 0 2 C0 1.34 0 0.68 0 0 Z " fill="#14B0EF" transform="translate(124,153)"/>
<path d="M0 0 C0.99 0 1.98 0 3 0 C1.84732504 8.26525534 0.00700551 15.98119209 -2.6875 23.875 C-3.21706299 25.44254028 -3.21706299 25.44254028 -3.75732422 27.04174805 C-6.54705778 35.10049249 -9.85071252 42.53907462 -14 50 C-14.54914063 51.04929687 -15.09828125 52.09859375 -15.6640625 53.1796875 C-19.88744003 61.18954144 -19.88744003 61.18954144 -23 64 C-22.67 62.35 -22.34 60.7 -22 59 C-21.34 59 -20.68 59 -20 59 C-20 57.68 -20 56.36 -20 55 C-19.34 55 -18.68 55 -18 55 C-17.95875 53.865625 -17.9175 52.73125 -17.875 51.5625 C-17.31865067 46.82510116 -15.15910729 43.76176831 -12.375 39.98046875 C-10.82649345 37.94827796 -10.82649345 37.94827796 -10 35 C-9.34 35 -8.68 35 -8 35 C-8.061875 33.783125 -8.12375 32.56625 -8.1875 31.3125 C-8.20151588 27.31797376 -7.16287713 25.37408833 -5 22 C-4.28076792 18.30476048 -4.28076792 18.30476048 -4 15 C-3.34 15 -2.68 15 -2 15 C-1.34 10.05 -0.68 5.1 0 0 Z " fill="#2B62B3" transform="translate(381,236)"/>
<path d="M0 0 C0.12460002 9.11177605 -0.2346631 18.15792713 -0.8125 27.25 C-0.85568359 27.94000092 -0.89886719 28.63000183 -0.94335938 29.34091187 C-1.54891047 38.86147496 -2.34568094 48.34018565 -3.5 57.8125 C-3.61835205 58.80733398 -3.7367041 59.80216797 -3.85864258 60.82714844 C-3.97747803 61.73625977 -4.09631348 62.64537109 -4.21875 63.58203125 C-4.32123047 64.36811768 -4.42371094 65.1542041 -4.52929688 65.96411133 C-5 68 -5 68 -7 71 C-6.86068862 67.9163358 -6.71240719 64.83316583 -6.5625 61.75 C-6.52318359 60.87730469 -6.48386719 60.00460938 -6.44335938 59.10546875 C-6.40146484 58.26113281 -6.35957031 57.41679687 -6.31640625 56.546875 C-6.27974854 55.77182617 -6.24309082 54.99677734 -6.20532227 54.19824219 C-6 52 -6 52 -5.51367188 50.07421875 C-4.32350162 45.2682841 -4.29682371 40.17420151 -3.9375 35.25 C-3.84807129 34.04110107 -3.75864258 32.83220215 -3.66650391 31.58666992 C-3.04300161 22.70146532 -2.75456084 13.90398746 -3 5 C-5.64 7.31 -8.28 9.62 -11 12 C-11.66 11.67 -12.32 11.34 -13 11 C-11.02354928 9.16365966 -9.044035 7.33083938 -7.0625 5.5 C-6.49853516 4.97535156 -5.93457031 4.45070312 -5.35351562 3.91015625 C-1.11328125 0 -1.11328125 0 0 0 Z " fill="#3474C0" transform="translate(391,162)"/>
<path d="M0 0 C0.02706445 2.89589652 0.04687029 5.79153795 0.0625 8.6875 C0.07087891 9.50412109 0.07925781 10.32074219 0.08789062 11.16210938 C0.10442051 15.24499084 0.03035098 19.01651707 -1 23 C-1.33 23 -1.66 23 -2 23 C-2 16.4 -2 9.8 -2 3 C-3.77375 3.495 -5.5475 3.99 -7.375 4.5 C-12.75 6 -12.75 6 -15 6 C-15 6.66 -15 7.32 -15 8 C-16.01320313 8.18175781 -16.01320313 8.18175781 -17.046875 8.3671875 C-17.93890625 8.53476563 -18.8309375 8.70234375 -19.75 8.875 C-21.07257813 9.11863281 -21.07257813 9.11863281 -22.421875 9.3671875 C-24.88793534 9.97249322 -26.77256249 10.80955323 -29 12 C-34.48621414 13.93631087 -39.26641957 14.23402369 -45 14 C-41.69552834 11.79701889 -38.6018758 10.9963022 -34.8125 10.0625 C-28.86059995 8.56042421 -28.86059995 8.56042421 -23.0625 6.5625 C-18.99024122 4.96467121 -14.85743856 3.62958979 -10.6875 2.3125 C-9.98052979 2.08570557 -9.27355957 1.85891113 -8.54516602 1.62524414 C-5.58668159 0.69851994 -3.11956912 0 0 0 Z " fill="#4695D1" transform="translate(388,109)"/>
<path d="M0 0 C-1.63195312 0.81791016 -1.63195312 0.81791016 -3.296875 1.65234375 C-12.59238558 6.39289507 -20.85020532 11.44329927 -29 18 C-30.32930114 19.0053538 -31.66106982 20.0075063 -33 21 C-33 19.68 -33 18.36 -33 17 C-33.99 17 -34.98 17 -36 17 C-35.75 15.125 -35.75 15.125 -35 13 C-32.9375 11.75 -32.9375 11.75 -31 11 C-30.67 11.66 -30.34 12.32 -30 13 C-27.67711095 13.22634733 -27.67711095 13.22634733 -25.5 10.6875 C-23.23035642 8.24763315 -21.48990552 5.97981104 -20 3 C-19.34 3.33 -18.68 3.66 -18 4 C-14.26068633 3.5845207 -10.62499036 3.0149973 -7 2 C-7 1.34 -7 0.68 -7 0 C-3.98968256 -0.93423645 -3.13349732 -1.04449911 0 0 Z " fill="#2581D0" transform="translate(310,189)"/>
<path d="M0 0 C0.99 0.33 1.98 0.66 3 1 C3 2.98 3 4.96 3 7 C5.64 6.67 8.28 6.34 11 6 C8.45228908 9.05020062 5.75865604 10.03990364 2.0625 11.375 C-5.60788813 14.21715275 -13.26507708 17.09977606 -20.5625 20.8125 C-23 22 -23 22 -26 22 C-26 21.01 -26 20.02 -26 19 C-24.35 19 -22.7 19 -21 19 C-21 18.34 -21 17.68 -21 17 C-18.36 16.34 -15.72 15.68 -13 15 C-13 14.34 -13 13.68 -13 13 C-11.02 13 -9.04 13 -7 13 C-6.67 12.01 -6.34 11.02 -6 10 C-3.36 9.67 -0.72 9.34 2 9 C1.67 8.443125 1.34 7.88625 1 7.3125 C-0.1309601 4.69715478 -0.15662974 2.8193354 0 0 Z " fill="#3283CC" transform="translate(336,166)"/>
<path d="M0 0 C0.99 0.495 0.99 0.495 2 1 C2.625 4.0625 2.625 4.0625 3 7 C3.66 7 4.32 7 5 7 C5 8.65 5 10.3 5 12 C5.66 12 6.32 12 7 12 C7.66 15.3 8.32 18.6 9 22 C9.66 22 10.32 22 11 22 C11.103125 22.598125 11.20625 23.19625 11.3125 23.8125 C11.82323528 26.05212396 11.82323528 26.05212396 13.4375 27.375 C15 29 15 29 15.9375 31.9375 C17.0975015 35.28103375 18.50288913 36.58612616 21 39 C21 39.99 21 40.98 21 42 C22.32 42.33 23.64 42.66 25 43 C24.67 44.65 24.34 46.3 24 48 C19.93851547 44.43081663 17.48165685 40.19398056 14.8125 35.5625 C14.33707764 34.73935303 13.86165527 33.91620605 13.37182617 33.06811523 C9.79719247 26.72809773 6.6911982 20.24521309 3.8125 13.5625 C3.42618408 12.66926025 3.03986816 11.77602051 2.6418457 10.85571289 C0.97913783 6.87187861 0 4.40080989 0 0 Z " fill="#3D8CCB" transform="translate(124,261)"/>
<path d="M0 0 C1.64666203 0.1135629 3.29236082 0.24117381 4.9375 0.375 C5.85402344 0.44460937 6.77054688 0.51421875 7.71484375 0.5859375 C8.84599609 0.79089844 8.84599609 0.79089844 10 1 C10.33 1.66 10.66 2.32 11 3 C13.2079259 4.02479005 13.2079259 4.02479005 15.8125 4.9375 C19.37761053 6.23821241 21.99471582 7.70447442 25 10 C25.845625 10.165 26.69125 10.33 27.5625 10.5 C30.36554452 11.07498349 31.15646487 11.89310271 33 14 C33.66 14.33 34.32 14.66 35 15 C35 15.66 35 16.32 35 17 C36.32 17 37.64 17 39 17 C39 17.99 39 18.98 39 20 C39.66 20 40.32 20 41 20 C40.505 21.485 40.505 21.485 40 23 C39.3915625 22.5153125 38.783125 22.030625 38.15625 21.53125 C30.26360558 15.49569839 21.96761349 11.19825561 13 7 C12.34483398 6.69223633 11.68966797 6.38447266 11.01464844 6.06738281 C7.35439494 4.35308687 3.6829628 2.66490099 0 1 C0 0.67 0 0.34 0 0 Z " fill="#45A5D5" transform="translate(177,182)"/>
<path d="M0 0 C2.97 0.495 2.97 0.495 6 1 C6.33 1.99 6.66 2.98 7 4 C8.485 4.1546875 8.485 4.1546875 10 4.3125 C14.28297163 4.90808706 17.99996371 6.38595027 22 8 C21.02617818 10.51570636 20.53848865 11.73944098 18.0625 12.9375 C16 13 16 13 14.25 11.6875 C13 10 13 10 13 8 C9.7 8 6.4 8 3 8 C2.814375 6.8553125 2.814375 6.8553125 2.625 5.6875 C2.11897208 2.79732864 2.11897208 2.79732864 0 0 Z " fill="#11A4F0" transform="translate(150,192)"/>
<path d="M0 0 C-1.0828125 0.804375 -1.0828125 0.804375 -2.1875 1.625 C-4.36336111 3.46239383 -5.89098344 5.00021468 -7.625 7.1875 C-10 10 -10 10 -13 11 C-14.11375 9.8553125 -14.11375 9.8553125 -15.25 8.6875 C-17.823554 6.04428801 -17.823554 6.04428801 -20.3125 4.3125 C-21.1478125 3.6628125 -21.1478125 3.6628125 -22 3 C-22 2.34 -22 1.68 -22 1 C-21.01 0.67 -20.02 0.34 -19 0 C-19 0.66 -19 1.32 -19 2 C-18.34 2 -17.68 2 -17 2 C-17 2.99 -17 3.98 -17 5 C-16.01 5 -15.02 5 -14 5 C-13.731875 4.360625 -13.46375 3.72125 -13.1875 3.0625 C-12 1 -12 1 -9 0 C-9 0.66 -9 1.32 -9 2 C-8.071875 1.484375 -7.14375 0.96875 -6.1875 0.4375 C-3 -1 -3 -1 0 0 Z " fill="#ECF5FA" transform="translate(263,144)"/>
<path d="M0 0 C6.75 0.75 6.75 0.75 9 3 C6.36 2.67 3.72 2.34 1 2 C1.144375 2.845625 1.28875 3.69125 1.4375 4.5625 C2.45653267 10.78992186 3.2474335 16.69044585 3 23 C3.66 23.33 4.32 23.66 5 24 C5 25.98 5 27.96 5 30 C5.66 30.33 6.32 30.66 7 31 C7.78125 32.92578125 7.78125 32.92578125 8.5 35.3125 C9.43403943 38.38366227 10.49333605 41.16201661 12 44 C4.58528029 37.64452596 0.8274933 28.63010324 0 19 C-0.20083442 12.66630231 -0.11706539 6.33453826 0 0 Z " fill="#51C3DF" transform="translate(112,109)"/>
<path d="M0 0 C2.375 -0.1875 2.375 -0.1875 5 0 C5.66 0.99 6.32 1.98 7 3 C8.051875 3.7115625 8.051875 3.7115625 9.125 4.4375 C9.74375 4.953125 10.3625 5.46875 11 6 C11 7.32 11 8.64 11 10 C11.66 10 12.32 10 13 10 C15 13 15 13 15 16 C15.66 16 16.32 16 17 16 C20.27039868 23.55695694 22.70226833 29.71323376 22 38 C21.67 38 21.34 38 21 38 C20.65388672 36.53240234 20.65388672 36.53240234 20.30078125 35.03515625 C16.81168074 20.77828364 10.63181568 10.34766916 0 0 Z " fill="#3C89C8" transform="translate(218,205)"/>
<path d="M0 0 C0.66 0.33 1.32 0.66 2 1 C1.56429688 1.43828125 1.12859375 1.8765625 0.6796875 2.328125 C-8.59313618 12.20308009 -11.96495598 22.93287525 -14 36 C-14.33 36 -14.66 36 -15 36 C-15.05449838 34.27119018 -15.09301688 32.54187288 -15.125 30.8125 C-15.14820313 29.84957031 -15.17140625 28.88664062 -15.1953125 27.89453125 C-14.98969198 24.84723517 -14.22167257 22.77652858 -13 20 C-12.62406934 18.0075675 -12.28020455 16.0081326 -12 14 C-11.34 14 -10.68 14 -10 14 C-10.33 12.35 -10.66 10.7 -11 9 C-9.68 9 -8.36 9 -7 9 C-6.773125 8.071875 -6.54625 7.14375 -6.3125 6.1875 C-4.78822059 2.48567857 -3.63393495 1.54442235 0 0 Z " fill="#2F83CD" transform="translate(275,210)"/>
<path d="M0 0 C0 0.66 0 1.32 0 2 C-0.54269531 2.25394531 -1.08539063 2.50789062 -1.64453125 2.76953125 C-2.35996094 3.11371094 -3.07539063 3.45789063 -3.8125 3.8125 C-4.52019531 4.14894531 -5.22789062 4.48539063 -5.95703125 4.83203125 C-8.85127367 6.48667462 -10.57214475 8.1442895 -12.0625 11.125 C-13 13 -13 13 -15 14 C-15.99 15.485 -15.99 15.485 -17 17 C-20.35282349 18.67641174 -22.16119422 19 -26 19 C-26 16.69 -26 14.38 -26 12 C-25.67 12.66 -25.34 13.32 -25 14 C-21.97065509 14.65772428 -21.97065509 14.65772428 -19 15 C-18.34 13.68 -17.68 12.36 -17 11 C-16.34 11 -15.68 11 -15 11 C-14.67515625 10.12601563 -14.67515625 10.12601563 -14.34375 9.234375 C-12.55455487 6.25931798 -10.44266135 5.06205988 -7.5 3.25 C-6.5203125 2.63640625 -5.540625 2.0228125 -4.53125 1.390625 C-2 0 -2 0 0 0 Z " fill="#3A9DD5" transform="translate(272,139)"/>
<path d="M0 0 C0.33 0 0.66 0 1 0 C1 5.61 1 11.22 1 17 C-0.32 17.33 -1.64 17.66 -3 18 C-2.67 15.36 -2.34 12.72 -2 10 C-1.34 10 -0.68 10 0 10 C0 8.35 0 6.7 0 5 C-1.98 5.99 -1.98 5.99 -4 7 C-4 7.66 -4 8.32 -4 9 C-4.969375 9.474375 -5.93875 9.94875 -6.9375 10.4375 C-9.80477437 11.70193947 -9.80477437 11.70193947 -11 13 C-12.66617115 13.04063832 -14.33388095 13.042721 -16 13 C-13.31718436 10.07329203 -10.93849076 7.83135492 -7.4375 5.9375 C-4.3509335 4.19779888 -2.3817327 2.56494291 0 0 Z " fill="#1071D7" transform="translate(388,166)"/>
<path d="M0 0 C0.33 0 0.66 0 1 0 C1 21.78 1 43.56 1 66 C-0.32 65.34 -1.64 64.68 -3 64 C-1.515 63.505 -1.515 63.505 0 63 C0 42.21 0 21.42 0 0 Z " fill="#1A6BC5" transform="translate(259,238)"/>
<path d="M0 0 C1.66611905 -0.042721 3.33382885 -0.04063832 5 0 C5.33 0.33 5.66 0.66 6 1 C12.34756533 2.58689133 18.69547413 3.57906986 25.1796875 4.4375 C28 5 28 5 31 7 C24.375 7.125 24.375 7.125 21 6 C19.7934375 6.2784375 19.7934375 6.2784375 18.5625 6.5625 C15.48991179 7.08708823 14.70230282 6.35115141 12 5 C9.31006947 5.30378052 9.31006947 5.30378052 7 6 C6.67 5.34 6.34 4.68 6 4 C4.68 4.33 3.36 4.66 2 5 C1.67 4.01 1.34 3.02 1 2 C0.67 1.34 0.34 0.68 0 0 Z " fill="#16BAF0" transform="translate(144,121)"/>
<path d="M0 0 C5.16612938 1.01648379 10.03924723 2.26752511 14.9375 4.203125 C18.57615882 5.60897045 22.29254647 6.78992836 26 8 C26 8.33 26 8.66 26 9 C18.13002478 10.38881916 14.51388301 9.48503989 8.00390625 5.2109375 C5.45622034 3.6714002 2.86157656 2.78693356 0 2 C0 1.34 0 0.68 0 0 Z " fill="#1BC4EB" transform="translate(122,112)"/>
<path d="M0 0 C-1.16402344 0.23783203 -1.16402344 0.23783203 -2.3515625 0.48046875 C-8.45886078 1.79958688 -14.26856509 3.37281527 -20.125 5.5625 C-26.03111925 7.76074169 -31.76332126 9.14722964 -38 10 C-36.07706635 6.15413271 -30.69556022 5.5769971 -26.78125 4.23828125 C-7.33825103 -2.1288992 -7.33825103 -2.1288992 0 0 Z " fill="#4CA1D3" transform="translate(310,129)"/>
<path d="M0 0 C0.60328125 0.08378906 1.2065625 0.16757813 1.828125 0.25390625 C3.02695313 0.40666016 3.02695313 0.40666016 4.25 0.5625 C5.03890625 0.66691406 5.8278125 0.77132812 6.640625 0.87890625 C8.98608686 1.12606577 8.98608686 1.12606577 11.109375 0.40234375 C11.73328125 0.26957031 12.3571875 0.13679687 13 0 C16 2 16 2 16.6875 4.625 C16.790625 5.40875 16.89375 6.1925 17 7 C17.763125 7.144375 18.52625 7.28875 19.3125 7.4375 C22 8 22 8 25 9 C25 9.66 25 10.32 25 11 C21.71779426 10.30539367 18.90602531 9.11464457 15.875 7.6875 C10.65150723 5.26908612 5.36492513 3.08312711 0 1 C0 0.67 0 0.34 0 0 Z " fill="#E2F5FA" transform="translate(143,186)"/>
<path d="M0 0 C1.14926266 0.95421808 2.29430541 1.91352045 3.4375 2.875 C4.07558594 3.40867188 4.71367188 3.94234375 5.37109375 4.4921875 C7 6 7 6 8 8 C6 7 4 6 2 5 C2.33 16.88 2.66 28.76 3 41 C2.67 41 2.34 41 2 41 C1.18959794 35.95012809 0.80441124 30.99411985 0.68359375 25.87890625 C0.66281265 25.13414536 0.64203156 24.38938446 0.62062073 23.62205505 C0.5558179 21.26895375 0.49656635 18.91575157 0.4375 16.5625 C0.3942487 14.95637024 0.35063243 13.35025027 0.30664062 11.74414062 C0.20020878 7.82952751 0.09875149 3.91481409 0 0 Z " fill="#6ABDD8" transform="translate(109,161)"/>
<path d="M0 0 C10.76857138 0.75568922 21.16862818 3.57714635 31 8 C28.08745193 9.45627404 26.07845777 8.29047489 23.078125 7.46484375 C20.86624021 6.87598515 20.86624021 6.87598515 18 7.125 C14.3256216 6.9719009 12.21475234 5.69079945 9.03515625 3.95703125 C6.02844352 2.54312603 3.29424363 2.2745203 0 2 C0 1.34 0 0.68 0 0 Z " fill="#45B1DE" transform="translate(196,129)"/>
<path d="M0 0 C7.89568034 3.58894561 12.80286555 12.27359174 16 20 C15.67 20.99 15.34 21.98 15 23 C10.07692308 17.83076923 10.07692308 17.83076923 9.6875 13.625 C9.790625 12.75875 9.89375 11.8925 10 11 C8.68 11.33 7.36 11.66 6 12 C5.67 9.69 5.34 7.38 5 5 C4.34 5 3.68 5 3 5 C1.375 3.625 1.375 3.625 0 2 C0 1.34 0 0.68 0 0 Z " fill="#4494D1" transform="translate(206,219)"/>
<path d="M0 0 C1.98 0.99 1.98 0.99 4 2 C4 2.99 4 3.98 4 5 C4.99 5 5.98 5 7 5 C7 5.66 7 6.32 7 7 C7.99 7.33 8.98 7.66 10 8 C9.67 8.99 9.34 9.98 9 11 C10.423125 11.433125 10.423125 11.433125 11.875 11.875 C15 13 15 13 17 15 C16.34 15 15.68 15 15 15 C15.33 16.65 15.66 18.3 16 20 C9.43083031 14.96829556 4.54423281 8.88332771 0 2 C0 1.34 0 0.68 0 0 Z " fill="#3077C8" transform="translate(148,309)"/>
<path d="M0 0 C2.475 0.99 2.475 0.99 5 2 C4.79375 2.78375 4.5875 3.5675 4.375 4.375 C4.25125 5.24125 4.1275 6.1075 4 7 C4.66 7.66 5.32 8.32 6 9 C5.34 9 4.68 9 4 9 C3.67 10.98 3.34 12.96 3 15 C3.99 15.33 4.98 15.66 6 16 C6.33 18.31 6.66 20.62 7 23 C6.01 23.33 5.02 23.66 4 24 C4 23.01 4 22.02 4 21 C3.34 21 2.68 21 2 21 C1.93941406 19.73542969 1.87882812 18.47085938 1.81640625 17.16796875 C1.73199096 15.50780129 1.64734345 13.84764563 1.5625 12.1875 C1.52318359 11.35412109 1.48386719 10.52074219 1.44335938 9.66210938 C1.40146484 8.85966797 1.35957031 8.05722656 1.31640625 7.23046875 C1.26141968 6.12288208 1.26141968 6.12288208 1.20532227 4.99291992 C1.05157859 2.792505 1.05157859 2.792505 0 0 Z " fill="#15A3EC" transform="translate(113,207)"/>
<path d="M0 0 C-15.7677665 11.29441624 -15.7677665 11.29441624 -23 12 C-23 11.01 -23 10.02 -23 9 C-20.03 8.34 -17.06 7.68 -14 7 C-14 6.34 -14 5.68 -14 5 C-12.68 5 -11.36 5 -10 5 C-9.773125 4.38125 -9.54625 3.7625 -9.3125 3.125 C-6.9604125 -0.68314167 -4.12119017 -1.37373006 0 0 Z " fill="#3282CB" transform="translate(370,160)"/>
<path d="M0 0 C0.6875 1.6875 0.6875 1.6875 1 4 C-0.65415828 7.56949945 -2.44641685 10.22320842 -6 12 C-10.20625886 11.77861795 -12.47567443 11.34955038 -16 9 C-16 8.34 -16 7.68 -16 7 C-12.7 7.99 -9.4 8.98 -6 10 C-6.33 9.01 -6.66 8.02 -7 7 C-4.66666667 4.66666667 -2.33333333 2.33333333 0 0 Z " fill="#234FB1" transform="translate(259,379)"/>
<path d="M0 0 C2.16874252 0.50603992 3.99967627 0.99983813 6 2 C6 2.66 6 3.32 6 4 C5.34 4.66 4.68 5.32 4 6 C6.64 6.33 9.28 6.66 12 7 C12 8.65 12 10.3 12 12 C5.375 11.25 5.375 11.25 2 9 C1.8125 5.375 1.8125 5.375 2 2 C1.34 2 0.68 2 0 2 C0 1.34 0 0.68 0 0 Z " fill="#0847C3" transform="translate(241,377)"/>
<path d="M0 0 C0.33 0 0.66 0 1 0 C1 12.54 1 25.08 1 38 C-0.32 37.67 -1.64 37.34 -3 37 C-3.495 35.515 -3.495 35.515 -4 34 C-3.01 33.34 -2.02 32.68 -1 32 C-0.66185252 29.52508886 -0.51127661 27.28648312 -0.48828125 24.8046875 C-0.46135445 23.74352219 -0.46135445 23.74352219 -0.43388367 22.66091919 C-0.37965558 20.39900697 -0.34584684 18.13730716 -0.3125 15.875 C-0.27933774 14.34241827 -0.2448491 12.80986462 -0.20898438 11.27734375 C-0.12392273 7.51838221 -0.05717247 3.759485 0 0 Z " fill="#1253B8" transform="translate(221,336)"/>
<path d="M0 0 C1.65 0 3.3 0 5 0 C4.67 1.65 4.34 3.3 4 5 C5.2375 5.928125 5.2375 5.928125 6.5 6.875 C7.325 7.57625 8.15 8.2775 9 9 C9 9.66 9 10.32 9 11 C10.32 11.33 11.64 11.66 13 12 C12.67 13.32 12.34 14.64 12 16 C11.34 16 10.68 16 10 16 C9.67 14.68 9.34 13.36 9 12 C8.4225 11.938125 7.845 11.87625 7.25 11.8125 C4.01312923 10.64363 2.80450953 8.87384851 1 6 C1.25 3.6875 1.25 3.6875 2 2 C1.34 2 0.68 2 0 2 C0 1.34 0 0.68 0 0 Z " fill="#0E68DA" transform="translate(162,321)"/>
<path d="M0 0 C3.37705625 0.53725895 6.696686 1.11064623 10 2 C10 2.66 10 3.32 10 4 C11.0725 3.979375 12.145 3.95875 13.25 3.9375 C16.14790424 3.9857984 18.28612141 4.13155885 21 5 C21 6.32 21 7.64 21 9 C22.32 9 23.64 9 25 9 C25 9.66 25 10.32 25 11 C19.55454384 9.30387431 14.36525793 7.10842318 9.125 4.875 C8.24585938 4.50246094 7.36671875 4.12992188 6.4609375 3.74609375 C4.30641773 2.83276472 2.15280976 1.91735068 0 1 C0 0.67 0 0.34 0 0 Z " fill="#45AEDD" transform="translate(151,171)"/>
<path d="M0 0 C6 1 6 1 9 3 C9 3.66 9 4.32 9 5 C6.69 5.33 4.38 5.66 2 6 C2 9.63 2 13.26 2 17 C1.34 17.33 0.68 17.66 0 18 C0 12.06 0 6.12 0 0 Z " fill="#14B6F4" transform="translate(112,170)"/>
<path d="M0 0 C0.33 0 0.66 0 1 0 C1.125 5.75 1.125 5.75 0 8 C-0.28875 9.134375 -0.5775 10.26875 -0.875 11.4375 C-1.99229053 14.97558668 -2.44846947 15.64474105 -5 18 C-6.43005443 20.28705457 -7.70429321 22.63198414 -9 25 C-9.66 24.67 -10.32 24.34 -11 24 C-10.45730469 22.9378125 -9.91460937 21.875625 -9.35546875 20.78125 C-8.63259435 19.35427716 -7.90995043 17.92718754 -7.1875 16.5 C-6.83107422 15.80390625 -6.47464844 15.1078125 -6.10742188 14.390625 C-3.73289792 9.68514633 -1.77225026 4.96453699 0 0 Z " fill="#DAE7F7" transform="translate(374,268)"/>
<path d="M0 0 C3.63 2.31 7.26 4.62 11 7 C10.67 7.99 10.34 8.98 10 10 C3.56985294 9.51470588 3.56985294 9.51470588 1.0625 7.25 C0 5 0 5 0 0 Z " fill="#30B4E4" transform="translate(121,173)"/>
<path d="M0 0 C0.33 0 0.66 0 1 0 C1 10.23 1 20.46 1 31 C1.66 31 2.32 31 3 31 C3 33.31 3 35.62 3 38 C1.51831055 36.99682617 1.51831055 36.99682617 0 35 C-0.26156261 32.27093638 -0.34921131 29.7753901 -0.29296875 27.05078125 C-0.28872391 26.27816452 -0.28447906 25.50554779 -0.28010559 24.70951843 C-0.26332183 22.24349008 -0.22567147 19.77828104 -0.1875 17.3125 C-0.17245271 15.63998577 -0.15876438 13.96745872 -0.14648438 12.29492188 C-0.11341946 8.19629922 -0.06164028 4.09828849 0 0 Z " fill="#1850B2" transform="translate(240,348)"/>
<path d="M0 0 C0.66 0 1.32 0 2 0 C2.4125 1.2375 2.825 2.475 3.25 3.75 C4.58057976 7.35975466 6.16985289 9.36503545 9 12 C9 12.99 9 13.98 9 15 C10.32 15.33 11.64 15.66 13 16 C12.67 17.65 12.34 19.3 12 21 C8.73395389 17.99350723 6.54027199 14.89465443 4.3125 11.0625 C3.71050781 10.04285156 3.10851562 9.02320313 2.48828125 7.97265625 C1.11468647 5.22907192 0.41702753 3.01927929 0 0 Z " fill="#2E7DC7" transform="translate(136,288)"/>
<path d="M0 0 C4.04448995 0.64592591 7.17005169 2.78144455 10.5625 4.9375 C11.13935547 5.29779297 11.71621094 5.65808594 12.31054688 6.02929688 C14.89910443 7.6505042 17.45854415 9.3056961 20 11 C20 11.66 20 12.32 20 13 C18.68 12.67 17.36 12.34 16 12 C16 11.34 16 10.68 16 10 C15.28972656 9.82984375 14.57945312 9.6596875 13.84765625 9.484375 C12.92855469 9.24203125 12.00945312 8.9996875 11.0625 8.75 C10.14597656 8.51796875 9.22945312 8.2859375 8.28515625 8.046875 C6 7 6 7 5.18359375 4.890625 C5.12300781 4.26671875 5.06242188 3.6428125 5 3 C3.35 2.67 1.7 2.34 0 2 C0 1.34 0 0.68 0 0 Z " fill="#3E99D2" transform="translate(186,206)"/>
<path d="M0 0 C-8.261959 5.74031891 -8.261959 5.74031891 -13 5 C-13.33 5.99 -13.66 6.98 -14 8 C-15.32 8 -16.64 8 -18 8 C-18.33 8.99 -18.66 9.98 -19 11 C-20.32 10.67 -21.64 10.34 -23 10 C-5.58895706 -2.79447853 -5.58895706 -2.79447853 0 0 Z " fill="#498CC9" transform="translate(327,201)"/>
<path d="M0 0 C2.5625 1.875 2.5625 1.875 5 4 C5.66 4.33 6.32 4.66 7 5 C7 5.66 7 6.32 7 7 C8.32 7 9.64 7 11 7 C11 7.99 11 8.98 11 10 C11.66 10 12.32 10 13 10 C12.67 10.99 12.34 11.98 12 13 C11.25234375 12.44570312 10.5046875 11.89140625 9.734375 11.3203125 C8.74953125 10.59585938 7.7646875 9.87140625 6.75 9.125 C5.77546875 8.40570313 4.8009375 7.68640625 3.796875 6.9453125 C1.56097846 5.39017775 -0.52872493 4.11795777 -3 3 C-3 2.34 -3 1.68 -3 1 C-2.01 0.67 -1.02 0.34 0 0 Z " fill="#3897D4" transform="translate(205,192)"/>
<path d="M0 0 C7.33585239 1.39414389 13.50582726 7.21020838 19 12 C18.01 12.33 17.02 12.66 16 13 C15.34 12.67 14.68 12.34 14 12 C14 11.34 14 10.68 14 10 C12.35 10 10.7 10 9 10 C8.814375 9.2575 8.62875 8.515 8.4375 7.75 C6.39087334 3.83471421 3.9124945 2.95624725 0 1 C0 0.67 0 0.34 0 0 Z " fill="#46A5D7" transform="translate(227,138)"/>
<path d="M0 0 C3 1 3 1 4 3 C4.99 3.33 5.98 3.66 7 4 C7.6875 6.0625 7.6875 6.0625 8 8 C9.98 8 11.96 8 14 8 C14.33 10.31 14.66 12.62 15 15 C8.82526189 11.23491579 3.01288934 6.73469382 0 0 Z " fill="#4079C0" transform="translate(164,329)"/>
<path d="M0 0 C0.33 0 0.66 0 1 0 C0.67 4.62 0.34 9.24 0 14 C-0.99 14 -1.98 14 -3 14 C-2.97679687 14.60328125 -2.95359375 15.2065625 -2.9296875 15.828125 C-2.91164063 16.62734375 -2.89359375 17.4265625 -2.875 18.25 C-2.85179687 19.03890625 -2.82859375 19.8278125 -2.8046875 20.640625 C-3 23 -3 23 -5 27 C-5.33 24.03 -5.66 21.06 -6 18 C-5.34 18 -4.68 18 -4 18 C-4 16.35 -4 14.7 -4 13 C-3.01 12.67 -2.02 12.34 -1 12 C-1.01160156 11.21753906 -1.02320313 10.43507812 -1.03515625 9.62890625 C-1.04417969 8.61699219 -1.05320312 7.60507813 -1.0625 6.5625 C-1.07410156 5.55316406 -1.08570313 4.54382813 -1.09765625 3.50390625 C-1 1 -1 1 0 0 Z " fill="#125FC8" transform="translate(384,222)"/>
<path d="M0 0 C2 1 2 1 2 1 Z M0 1 C-0.66 1.4125 -1.32 1.825 -2 2.25 C-2.66 2.8275 -3.32 3.405 -4 4 C-4 5.32 -4 6.64 -4 8 C-4.99 8.33 -5.98 8.66 -7 9 C-7 8.01 -7 7.02 -7 6 C-8.65 6.33 -10.3 6.66 -12 7 C-12 7.66 -12 8.32 -12 9 C-14.97 8.505 -14.97 8.505 -18 8 C-18 7.67 -18 7.34 -18 7 C-17.09507812 6.72736328 -17.09507812 6.72736328 -16.171875 6.44921875 C-11.19116977 4.93430935 -11.19116977 4.93430935 -6.75 2.3125 C-4.43414602 0.57560952 -2.82135457 0.76488712 0 1 Z " fill="#1178DE" transform="translate(332,199)"/>
<path d="M0 0 C0.33 0.99 0.66 1.98 1 3 C-0.4375 5.1875 -0.4375 5.1875 -2 7 C-6.75 6.125 -6.75 6.125 -9 5 C-9.33 5.66 -9.66 6.32 -10 7 C-10.99 6.67 -11.98 6.34 -13 6 C-10 4 -10 4 -7 4 C-7 3.34 -7 2.68 -7 2 C-2.25 0 -2.25 0 0 0 Z " fill="#1397E3" transform="translate(279,137)"/>
<path d="M0 0 C0.33 0 0.66 0 1 0 C1.39608095 8.31770004 -0.18713979 14.62294438 -4 22 C-4.33 22 -4.66 22 -5 22 C-5.36629408 17.72656908 -4.40814077 15.51187196 -2 12 C-2.66 11.67 -3.32 11.34 -4 11 C-3.525625 10.113125 -3.05125 9.22625 -2.5625 8.3125 C-1.20262851 5.42957244 -0.45939614 3.12389377 0 0 Z " fill="#2080CE" transform="translate(385,126)"/>
<path d="M0 0 C0 0.99 0 1.98 0 3 C-1.57421875 4.24609375 -1.57421875 4.24609375 -3.6875 5.4375 C-7.02982048 7.3965866 -10.0309373 9.49485335 -13 12 C-13.66 11.67 -14.32 11.34 -15 11 C-11.55874023 6.37580718 -6.28085826 0 0 0 Z " fill="#4184C5" transform="translate(304,212)"/>
<path d="M0 0 C1.32 0.99 2.64 1.98 4 3 C3.60196439 5.88575819 3.20990931 6.82189513 0.9375 8.75 C0.298125 9.1625 -0.34125 9.575 -1 10 C-1 8.68 -1 7.36 -1 6 C-1.99 6 -2.98 6 -4 6 C-3.6875 4.125 -3.6875 4.125 -3 2 C-2.01 1.34 -1.02 0.68 0 0 Z " fill="#0C7FE0" transform="translate(278,200)"/>
<path d="M0 0 C4.57228148 1.38764233 8.6095009 3.2327822 12.8125 5.5 C13.95332031 6.1084375 15.09414062 6.716875 16.26953125 7.34375 C19 9 19 9 20 11 C17.0625 10.625 17.0625 10.625 14 10 C13.67 9.34 13.34 8.68 13 8 C12.21625 7.855625 11.4325 7.71125 10.625 7.5625 C7.63072641 6.92086995 7.05608172 6.14175179 5 4 C2.40084462 2.80972016 2.40084462 2.80972016 0 2 C0 1.34 0 0.68 0 0 Z " fill="#3BADDC" transform="translate(132,181)"/>
<path d="M0 0 C2.475 0.99 2.475 0.99 5 2 C5 2.66 5 3.32 5 4 C6.65 4 8.3 4 10 4 C10.66 5.32 11.32 6.64 12 8 C9.69 8 7.38 8 5 8 C5 7.34 5 6.68 5 6 C4.01 6 3.02 6 2 6 C1.34 4.02 0.68 2.04 0 0 Z " fill="#12ADF0" transform="translate(135,184)"/>
<path d="M0 0 C0.99 0.33 1.98 0.66 3 1 C3 1.66 3 2.32 3 3 C3.8353125 3.37125 3.8353125 3.37125 4.6875 3.75 C7 5 7 5 9.375 7 C11.91808511 9.17279118 11.91808511 9.17279118 15.1875 10 C18 11 18 11 19.375 13.125 C19.58125 13.74375 19.7875 14.3625 20 15 C18.66666667 14.33333333 17.33333333 13.66666667 16 13 C15.13375 12.62875 14.2675 12.2575 13.375 11.875 C8.49903134 9.16612852 4.08471802 5.80217824 0 2 C0 1.34 0 0.68 0 0 Z " fill="#57BBDA" transform="translate(124,153)"/>
<path d="M0 0 C5.02464267 1.28537371 7.5082009 3.21721764 11 7 C11.66 7.33 12.32 7.66 13 8 C13 8.66 13 9.32 13 10 C13.9590625 10.1546875 13.9590625 10.1546875 14.9375 10.3125 C15.618125 10.539375 16.29875 10.76625 17 11 C17.33 11.99 17.66 12.98 18 14 C10.65717034 11.93482916 5.17011873 5.33168494 0 0 Z " fill="#3468BA" transform="translate(187,351)"/>
<path d="M0 0 C2.375 -0.1875 2.375 -0.1875 5 0 C5.66 0.99 6.32 1.98 7 3 C8.051875 3.7115625 8.051875 3.7115625 9.125 4.4375 C9.74375 4.953125 10.3625 5.46875 11 6 C11 7.32 11 8.64 11 10 C11.66 10.33 12.32 10.66 13 11 C9.59509942 10.74778514 8.83498757 9.81436101 6.5 7.1875 C6.08363281 6.65253906 5.66726562 6.11757812 5.23828125 5.56640625 C3.64421437 3.54993679 1.84955002 1.78104817 0 0 Z " fill="#3391D3" transform="translate(218,205)"/>
<path d="M0 0 C12.26413994 7.77725948 12.26413994 7.77725948 15 14 C12 14 12 14 10.5703125 12.609375 C10.09335938 11.99578125 9.61640625 11.3821875 9.125 10.75 C6.67140913 7.72594925 4.15358236 5.31881056 1 3 C0.67 3.99 0.34 4.98 0 6 C-1.24546405 3.50907189 -0.7767578 2.58919267 0 0 Z " fill="#E1F2FB" transform="translate(212,201)"/>
<path d="M0 0 C0.66 0.33 1.32 0.66 2 1 C0.87716914 4.2562095 0.04149584 4.97713495 -3.0625 6.6875 C-4.031875 7.120625 -5.00125 7.55375 -6 8 C-6.33 8.33 -6.66 8.66 -7 9 C-8.66617115 9.04063832 -10.33388095 9.042721 -12 9 C-8.33494586 5.00175912 -4.88887148 2.39831431 0 0 Z " fill="#217AD1" transform="translate(384,170)"/>
<path d="M0 0 C0.66 0 1.32 0 2 0 C2 0.66 2 1.32 2 2 C3.98 2 5.96 2 8 2 C8.33 3.32 8.66 4.64 9 6 C6.36 6.33 3.72 6.66 1 7 C0.67 4.69 0.34 2.38 0 0 Z " fill="#0D7DE1" transform="translate(338,166)"/>
<path d="M0 0 C-0.99 0.495 -0.99 0.495 -2 1 C-0.02 1.66 1.96 2.32 4 3 C-0.02014661 4.56454159 -3.69925681 3.46223974 -7.75 2.5625 C-8.44738281 2.41490234 -9.14476562 2.26730469 -9.86328125 2.11523438 C-11.5772021 1.75131967 -13.28884581 1.37670932 -15 1 C-15 0.67 -15 0.34 -15 0 C-13.25360243 -0.39143394 -11.50264082 -0.76254287 -9.75 -1.125 C-8.77546875 -1.33382812 -7.8009375 -1.54265625 -6.796875 -1.7578125 C-3.76557234 -2.0202996 -2.51982654 -1.61988849 0 0 Z " fill="#E6F7FC" transform="translate(181,123)"/>
<path d="M0 0 C1.45903258 0.30921884 2.91720722 0.62248799 4.375 0.9375 C5.18710938 1.11152344 5.99921875 1.28554687 6.8359375 1.46484375 C9 2 9 2 11 3 C11 3.66 11 4.32 11 5 C8.03 5.66 5.06 6.32 2 7 C1.34 4.69 0.68 2.38 0 0 Z " fill="#0FC8F7" transform="translate(119,113)"/>
<path d="M0 0 C0 0.33 0 0.66 0 1 C-4.0527516 1.98248524 -7.83861737 2.08159574 -12 2 C-12 2.66 -12 3.32 -12 4 C-16.29 4 -20.58 4 -25 4 C-20.9318725 1.96593625 -18.09730321 1.43738543 -13.625 0.875 C-11.69527344 0.62363281 -11.69527344 0.62363281 -9.7265625 0.3671875 C-6.44921341 0.04426212 -3.2892102 -0.07128319 0 0 Z " fill="#509DCF" transform="translate(343,123)"/>
<path d="M0 0 C0 3.96 0 7.92 0 12 C-0.33 12 -0.66 12 -1 12 C-1.33 9.69 -1.66 7.38 -2 5 C-2.54269531 5.433125 -3.08539063 5.86625 -3.64453125 6.3125 C-4.35996094 6.869375 -5.07539063 7.42625 -5.8125 8 C-6.87404297 8.8353125 -6.87404297 8.8353125 -7.95703125 9.6875 C-10 11 -10 11 -13 11 C-11.02354928 9.16365966 -9.044035 7.33083938 -7.0625 5.5 C-6.49853516 4.97535156 -5.93457031 4.45070312 -5.35351562 3.91015625 C-1.11328125 0 -1.11328125 0 0 0 Z " fill="#5287BC" transform="translate(391,162)"/>
<path d="M0 0 C2.31 0.33 4.62 0.66 7 1 C7.33 1.99 7.66 2.98 8 4 C6.68 4 5.36 4 4 4 C4 4.66 4 5.32 4 6 C2.35 6.33 0.7 6.66 -1 7 C-0.7525 6.1028125 -0.7525 6.1028125 -0.5 5.1875 C0.1114124 2.88655664 0.1114124 2.88655664 0 0 Z " fill="#0C7CE2" transform="translate(352,161)"/>
<path d="M0 0 C0.99 0.33 1.98 0.66 3 1 C1.54699102 3.14961616 0.0879574 5.29467129 -1.375 7.4375 C-1.7875 8.04916016 -2.2 8.66082031 -2.625 9.29101562 C-5.7734375 13.88671875 -5.7734375 13.88671875 -8 15 C-7.74438677 12.6568787 -7.40729228 10.32156597 -7 8 C-6.34 7.67 -5.68 7.34 -5 7 C-4.34 7.33 -3.68 7.66 -3 8 C-1.92474806 5.34771188 -0.90543849 2.71631546 0 0 Z " fill="#2B5CB4" transform="translate(355,301)"/>
<path d="M0 0 C0.66 0 1.32 0 2 0 C1.71640113 1.4391134 1.42278601 2.87625518 1.125 4.3125 C0.96257812 5.11300781 0.80015625 5.91351563 0.6328125 6.73828125 C0 9 0 9 -2 12 C-3.32 12 -4.64 12 -6 12 C-4.68448876 7.39571066 -2.90803514 3.81679612 0 0 Z " fill="#3A82C9" transform="translate(286,225)"/>
<path d="M0 0 C-0.928125 0.45375 -1.85625 0.9075 -2.8125 1.375 C-6.78545441 3.94573521 -7.348693 7.43049565 -8.359375 11.85546875 C-8.57078125 12.56316406 -8.7821875 13.27085937 -9 14 C-9.99 14.495 -9.99 14.495 -11 15 C-10.88490339 13.58249437 -10.75746342 12.16598831 -10.625 10.75 C-10.55539062 9.96109375 -10.48578125 9.1721875 -10.4140625 8.359375 C-9.73765161 4.50510915 -8.71428412 2.53113435 -5.5625 0.1875 C-3 -1 -3 -1 0 0 Z " fill="#1077DF" transform="translate(296,222)"/>
<path d="M0 0 C1.2065625 0.0309375 1.2065625 0.0309375 2.4375 0.0625 C2.49134521 2.35391286 2.53022087 4.64568188 2.5625 6.9375 C2.58570313 8.21367188 2.60890625 9.48984375 2.6328125 10.8046875 C2.4375 14.0625 2.4375 14.0625 0.4375 16.0625 C0.7675 12.7625 1.0975 9.4625 1.4375 6.0625 C0.1175 5.7325 -1.2025 5.4025 -2.5625 5.0625 C-2.2325 4.0725 -1.9025 3.0825 -1.5625 2.0625 C-2.2225 1.7325 -2.8825 1.4025 -3.5625 1.0625 C-2.5625 0.0625 -2.5625 0.0625 0 0 Z " fill="#1386DF" transform="translate(383.5625,111.9375)"/>
<path d="M0 0 C4.08718695 -0.24042276 7.17679443 0.57741188 11 2 C11 3.32 11 4.64 11 6 C9.68 6 8.36 6 7 6 C6.67 5.34 6.34 4.68 6 4 C4.68 4.33 3.36 4.66 2 5 C1.67 4.01 1.34 3.02 1 2 C0.67 1.34 0.34 0.68 0 0 Z " fill="#10C2F6" transform="translate(144,121)"/>
<path d="M0 0 C0.804375 0.495 0.804375 0.495 1.625 1 C4.5391061 2.22699204 6.86867708 2.14233286 10 2 C9.67 3.32 9.34 4.64 9 6 C7.02 6 5.04 6 3 6 C3 5.34 3 4.68 3 4 C1.68 4 0.36 4 -1 4 C-0.67 2.68 -0.34 1.36 0 0 Z " fill="#19A5EC" transform="translate(173,176)"/>
<path d="M0 0 C1.4800841 0.11362262 2.95910074 0.24122908 4.4375 0.375 C5.26121094 0.44460937 6.08492187 0.51421875 6.93359375 0.5859375 C7.95646484 0.79089844 7.95646484 0.79089844 9 1 C9.33 1.66 9.66 2.32 10 3 C8.68 3 7.36 3 6 3 C5.34 3.66 4.68 4.32 4 5 C4 4.34 4 3.68 4 3 C3.34 3 2.68 3 2 3 C1.67 3.66 1.34 4.32 1 5 C0.01 4.67 -0.98 4.34 -2 4 C-1.34 2.68 -0.68 1.36 0 0 Z " fill="#229DE6" transform="translate(176,203)"/>
<path d="M0 0 C2.97 0.33 5.94 0.66 9 1 C8 3 8 3 5.93359375 3.8515625 C4.69802734 4.23441406 4.69802734 4.23441406 3.4375 4.625 C2.61121094 4.88539063 1.78492188 5.14578125 0.93359375 5.4140625 C0.29550781 5.60742188 -0.34257812 5.80078125 -1 6 C-1.33 5.34 -1.66 4.68 -2 4 C-1.34 3.67 -0.68 3.34 0 3 C0 2.01 0 1.02 0 0 Z " fill="#E5F1FA" transform="translate(325,195)"/>
<path d="M0 0 C0.99 0.33 1.98 0.66 3 1 C3 2.98 3 4.96 3 7 C5.64 6.67 8.28 6.34 11 6 C9.875 7.5 9.875 7.5 8 9 C4.8125 9.1875 4.8125 9.1875 2 9 C0.14223235 5.86501708 -0.20140476 3.62528568 0 0 Z " fill="#217ED3" transform="translate(336,166)"/>
<path d="M0 0 C0.66 0.33 1.32 0.66 2 1 C1.34 4.3 0.68 7.6 0 11 C-1.65 11.33 -3.3 11.66 -5 12 C-5 11.34 -5 10.68 -5 10 C-4.01 10 -3.02 10 -2 10 C-2.33 8.35 -2.66 6.7 -3 5 C-2.34 4.67 -1.68 4.34 -1 4 C-0.34786708 1.97536745 -0.34786708 1.97536745 0 0 Z " fill="#0651C6" transform="translate(347,305)"/>
<path d="M0 0 C1.16179779 3.48539337 0.77071085 4.365423 -0.375 7.75 C-1.69707332 11.86714156 -2.53341934 15.70745789 -3 20 C-3.33 20 -3.66 20 -4 20 C-4.51778074 12.30520289 -3.7505733 6.78117047 0 0 Z " fill="#4584C1" transform="translate(264,226)"/>
<path d="M0 0 C3.3 0 6.6 0 10 0 C10 0.99 10 1.98 10 3 C9.34 3.66 8.68 4.32 8 5 C5.36 4.01 2.72 3.02 0 2 C0 1.34 0 0.68 0 0 Z " fill="#139DEF" transform="translate(188,184)"/>
<path d="M0 0 C1.32 0 2.64 0 4 0 C3.67 1.65 3.34 3.3 3 5 C2.01 5 1.02 5 0 5 C-2.33564933 5.31669821 -4.6693782 5.64820803 -7 6 C-5.1875 4 -5.1875 4 -3 2 C-2.01 2 -1.02 2 0 2 C0 1.34 0 0.68 0 0 Z " fill="#0E75DE" transform="translate(372,179)"/>
<path d="M0 0 C0.33 0.66 0.66 1.32 1 2 C-6.29840547 10.44646925 -6.29840547 10.44646925 -10 14 C-10.66 13.67 -11.32 13.34 -12 13 C-11.55269531 12.56429688 -11.10539062 12.12859375 -10.64453125 11.6796875 C-6.85478464 7.94650427 -3.33540417 4.143987 0 0 Z " fill="#DAE9FB" transform="translate(340,325)"/>
<path d="M0 0 C3.10190545 4.65285818 4.33846504 9.41532676 4 15 C1.06072301 12.57190162 0.42701824 10.75776054 0 7 C-0.03824623 4.66698014 -0.04574284 2.33288492 0 0 Z M-1 8 C-0.01 8.495 -0.01 8.495 1 9 C0.01 9.495 0.01 9.495 -1 10 C-1 9.34 -1 8.68 -1 8 Z " fill="#D5EAF6" transform="translate(121,255)"/>
<path d="M0 0 C0.33 0 0.66 0 1 0 C2.06965872 6.32448699 3.13329546 12.64416673 4 19 C3.34 19 2.68 19 2 19 C0.27706865 14.53665816 -0.22240791 10.89798769 -0.125 6.125 C-0.10695313 4.97257813 -0.08890625 3.82015625 -0.0703125 2.6328125 C-0.04710938 1.76398438 -0.02390625 0.89515625 0 0 Z " fill="#D5F0F9" transform="translate(113,220)"/>
<path d="M0 0 C8.66666667 4.33333333 8.66666667 4.33333333 10 7 C7.03 6.01 4.06 5.02 1 4 C1 5.98 1 7.96 1 10 C0.67 10 0.34 10 0 10 C0 6.7 0 3.4 0 0 Z " fill="#2DB8E7" transform="translate(111,166)"/>
<path d="M0 0 C-5.1468192 3.16727335 -9.158256 3.35050464 -15 3 C-12.41464321 1.27642881 -10.96188386 0.55264982 -8.0625 -0.1875 C-7.39347656 -0.36667969 -6.72445313 -0.54585938 -6.03515625 -0.73046875 C-3.75319112 -1.03268678 -2.17973341 -0.68756692 0 0 Z " fill="#368DCC" transform="translate(358,120)"/>
<path d="M0 0 C4.84688192 0.78175515 9.3766367 2.39844278 14 4 C14 4.33 14 4.66 14 5 C11.69 5.33 9.38 5.66 7 6 C6.67 5.01 6.34 4.02 6 3 C5.01 3 4.02 3 3 3 C3 2.34 3 1.68 3 1 C2.01 0.67 1.02 0.34 0 0 Z " fill="#43C1E4" transform="translate(134,116)"/>
<path d="M0 0 C0.99 0 1.98 0 3 0 C2.67 1.98 2.34 3.96 2 6 C0.02 6 -1.96 6 -4 6 C-4.33 5.01 -4.66 4.02 -5 3 C-4.360625 2.87625 -3.72125 2.7525 -3.0625 2.625 C-2.0415625 2.315625 -2.0415625 2.315625 -1 2 C-0.67 1.34 -0.34 0.68 0 0 Z " fill="#0F79E0" transform="translate(309,209)"/>
<path d="M0 0 C-4.455 2.97 -4.455 2.97 -9 6 C-9.33 5.01 -9.66 4.02 -10 3 C-8 0 -8 0 -6.125 -0.75 C-4 -1 -4 -1 0 0 Z " fill="#3587CC" transform="translate(292,199)"/>
<path d="M0 0 C0.33 0 0.66 0 1 0 C1 6.27 1 12.54 1 19 C0.01 19 -0.98 19 -2 19 C-1.84660156 18.49984375 -1.69320313 17.9996875 -1.53515625 17.484375 C-0.80542604 14.09672234 -0.63643523 10.70038481 -0.4375 7.25 C-0.39431641 6.55261719 -0.35113281 5.85523438 -0.30664062 5.13671875 C-0.20110404 3.42468078 -0.1001009 1.71236439 0 0 Z " fill="#1349B6" transform="translate(259,360)"/>
<path d="M0 0 C2.31 0 4.62 0 7 0 C7.33 0.99 7.66 1.98 8 3 C7.34 3.66 6.68 4.32 6 5 C5.34 4.67 4.68 4.34 4 4 C3.34 4.66 2.68 5.32 2 6 C1.34 4.02 0.68 2.04 0 0 Z " fill="#1BB3EA" transform="translate(189,129)"/>
<path d="M0 0 C-0.66 1.65 -1.32 3.3 -2 5 C-2.99 5 -3.98 5 -5 5 C-5.66 3.35 -6.32 1.7 -7 0 C-4.3333581 -1.33332095 -2.83319697 -0.67102033 0 0 Z " fill="#0A62D4" transform="translate(184,339)"/>
<path d="M0 0 C5.02470674 2.37277818 6.56030983 5.21097855 9 10 C8.01 10.66 7.02 11.32 6 12 C5.67 9.69 5.34 7.38 5 5 C4.34 5 3.68 5 3 5 C1.375 3.625 1.375 3.625 0 2 C0 1.34 0 0.68 0 0 Z " fill="#2E8CD2" transform="translate(206,219)"/>
<path d="M0 0 C0.33 0.66 0.66 1.32 1 2 C3.52733235 2.65555119 3.52733235 2.65555119 6 3 C6 3.99 6 4.98 6 6 C4.02 6.33 2.04 6.66 0 7 C0 4.69 0 2.38 0 0 Z " fill="#319EDE" transform="translate(246,151)"/>
<path d="M0 0 C2.97 0.99 5.94 1.98 9 3 C9.33 4.65 9.66 6.3 10 8 C7.50638429 6.79618552 5.31856917 5.54571278 3 4 C3 3.34 3 2.68 3 2 C2.01 1.67 1.02 1.34 0 1 C0 0.67 0 0.34 0 0 Z " fill="#17B7E7" transform="translate(124,152)"/>
<path d="M0 0 C1 2 1 2 0.0625 5.125 C-0.288125 6.07375 -0.63875 7.0225 -1 8 C-3.97 7.505 -3.97 7.505 -7 7 C-4.66666667 4.66666667 -2.33333333 2.33333333 0 0 Z " fill="#DFE7F7" transform="translate(313,351)"/>
<path d="M0 0 C0.66 0 1.32 0 2 0 C2.66 2.64 3.32 5.28 4 8 C1.5625 7.1875 1.5625 7.1875 -1 6 C-1.33 5.01 -1.66 4.02 -2 3 C-1.34 2.01 -0.68 1.02 0 0 Z " fill="#1291EC" transform="translate(124,249)"/>
<path d="M0 0 C0.99 0 1.98 0 3 0 C2.71831703 1.95979427 2.42433283 3.91782378 2.125 5.875 C1.96257812 6.96554688 1.80015625 8.05609375 1.6328125 9.1796875 C1 12 1 12 -1 14 C-0.67 9.38 -0.34 4.76 0 0 Z " fill="#3871BE" transform="translate(381,236)"/>
<path d="M0 0 C0.99 0.33 1.98 0.66 3 1 C2.2575 1.5775 1.515 2.155 0.75 2.75 C-1.66087643 4.72253526 -3.84042701 6.76044282 -6 9 C-6.33 8.01 -6.66 7.02 -7 6 C-6.01 6 -5.02 6 -4 6 C-4.33 5.01 -4.66 4.02 -5 3 C-2.6875 1.4375 -2.6875 1.4375 0 0 Z " fill="#DBF0F8" transform="translate(260,143)"/>
<path d="M0 0 C3.9492568 0.55105909 7.34920174 1.38935371 11 3 C10.34 3.66 9.68 4.32 9 5 C8.34 5 7.68 5 7 5 C7 4.34 7 3.68 7 3 C4.69 3.33 2.38 3.66 0 4 C-0.33 3.34 -0.66 2.68 -1 2 C-0.67 1.34 -0.34 0.68 0 0 Z " fill="#11B2F2" transform="translate(199,131)"/>
<path d="M0 0 C0.66 0.33 1.32 0.66 2 1 C2.6328125 3.28515625 2.6328125 3.28515625 3.125 6.0625 C3.29257813 6.98160156 3.46015625 7.90070313 3.6328125 8.84765625 C3.75398438 9.55792969 3.87515625 10.26820313 4 11 C3.01 11.495 3.01 11.495 2 12 C2 11.34 2 10.68 2 10 C1.01 9.67 0.02 9.34 -1 9 C-0.67 8.34 -0.34 7.68 0 7 C0.04022391 4.6670134 0.04320247 2.33293334 0 0 Z " fill="#0BC6FA" transform="translate(116,122)"/>
<path d="M0 0 C0 3.62875867 -1.22793994 5.01739353 -3.5546875 7.703125 C-5.55721506 9.49998757 -7.35337395 9.84876423 -10 10 C-6.66666667 6.66666667 -3.33333333 3.33333333 0 0 Z " fill="#DCEAF9" transform="translate(327,339)"/>
<path d="M0 0 C0.66 0 1.32 0 2 0 C1.01 4.62 0.02 9.24 -1 14 C-1.33 14 -1.66 14 -2 14 C-2 3 -2 3 0 0 Z " fill="#DEEEFC" transform="translate(279,233)"/>
<path d="M0 0 C0.93423645 3.01031744 1.04449911 3.86650268 0 7 C0.66 7 1.32 7 2 7 C1.67 7.99 1.34 8.98 1 10 C0.34 10 -0.32 10 -1 10 C-1.66 11.32 -2.32 12.64 -3 14 C-3 10.7997785 -2.36757608 8.38516529 -1.5 5.3125 C-1.2215625 4.31863281 -0.943125 3.32476562 -0.65625 2.30078125 C-0.33140625 1.16189453 -0.33140625 1.16189453 0 0 Z " fill="#D4E9F7" transform="translate(386,132)"/>
<path d="M0 0 C-0.33 1.32 -0.66 2.64 -1 4 C-2.32 4.33 -3.64 4.66 -5 5 C-5.66 4.01 -6.32 3.02 -7 2 C-4 0 -4 0 0 0 Z " fill="#134CB6" transform="translate(295,363)"/>
<path d="M0 0 C0.66 0 1.32 0 2 0 C2 2.31 2 4.62 2 7 C2.66 7 3.32 7 4 7 C4 7.99 4 8.98 4 10 C3.01 10 2.02 10 1 10 C-0.60725635 6.78548731 -0.05748185 3.56387464 0 0 Z " fill="#0C47B7" transform="translate(278,363)"/>
<path d="M0 0 C0.33 0 0.66 0 1 0 C0.67 2.64 0.34 5.28 0 8 C-0.99 8 -1.98 8 -3 8 C-3.33 8.99 -3.66 9.98 -4 11 C-4.56531239 6.1948447 -2.88324916 3.75696103 0 0 Z " fill="#1E5ABC" transform="translate(368,277)"/>
<path d="M0 0 C1.5 1.375 1.5 1.375 3 3 C3 3.66 3 4.32 3 5 C1.02 5.66 -0.96 6.32 -3 7 C-3.1875 4.625 -3.1875 4.625 -3 2 C-2.01 1.34 -1.02 0.68 0 0 Z " fill="#1376D5" transform="translate(283,235)"/>
<path d="M0 0 C0.99 0 1.98 0 3 0 C2.44894091 3.9492568 1.61064629 7.34920174 0 11 C-0.33 11 -0.66 11 -1 11 C-0.67 7.37 -0.34 3.74 0 0 Z " fill="#107ADB" transform="translate(260,227)"/>
<path d="M0 0 C0.66 1.32 1.32 2.64 2 4 C1.34 4 0.68 4 0 4 C-0.33 5.65 -0.66 7.3 -1 9 C-1.66 9 -2.32 9 -3 9 C-3.08226668 5.95613276 -2.97608217 3.92824652 -2 1 C-1.34 0.67 -0.68 0.34 0 0 Z " fill="#0F7DE0" transform="translate(371,150)"/>
<path d="M0 0 C0 0.66 0 1.32 0 2 C-1.65 2.66 -3.3 3.32 -5 4 C-5.66 3.34 -6.32 2.68 -7 2 C-7.33 2.66 -7.66 3.32 -8 4 C-8.33 3.01 -8.66 2.02 -9 1 C-6.04335481 -0.4783226 -3.25770263 -0.06032783 0 0 Z " fill="#0FA1F1" transform="translate(241,148)"/>
<path d="M0 0 C3.3 0.99 6.6 1.98 10 3 C9.67 3.66 9.34 4.32 9 5 C5.93606987 5.25532751 4.36766788 5.21861333 1.6875 3.625 C1.130625 3.08875 0.57375 2.5525 0 2 C0 1.34 0 0.68 0 0 Z " fill="#E1EBFA" transform="translate(243,388)"/>
<path d="M0 0 C2.875 -0.125 2.875 -0.125 6 0 C8 2 8 2 8 4 C8.33 4.66 8.66 5.32 9 6 C4.125 4.25 4.125 4.25 3 2 C2.01 1.34 1.02 0.68 0 0 Z " fill="#0B56C8" transform="translate(200,360)"/>
<path d="M0 0 C1.65 0.33 3.3 0.66 5 1 C4.01 2.32 3.02 3.64 2 5 C0.68 4.34 -0.64 3.68 -2 3 C-1.34 2.01 -0.68 1.02 0 0 Z " fill="#0B59D1" transform="translate(195,352)"/>
<path d="M0 0 C0.33 0.99 0.66 1.98 1 3 C-0.65 4.32 -2.3 5.64 -4 7 C-4.66 6.67 -5.32 6.34 -6 6 C-6 5.34 -6 4.68 -6 4 C-5.01 4 -4.02 4 -3 4 C-3 3.34 -3 2.68 -3 2 C-2.01 1.34 -1.02 0.68 0 0 Z " fill="#184FB5" transform="translate(319,343)"/>
<path d="M0 0 C1.32 0 2.64 0 4 0 C4.33 2.31 4.66 4.62 5 7 C2.5 5.75 2.5 5.75 0 4 C0 2.68 0 1.36 0 0 Z " fill="#286DCB" transform="translate(174,337)"/>
<path d="M0 0 C0.94875 0.350625 1.8975 0.70125 2.875 1.0625 C2.875 2.3825 2.875 3.7025 2.875 5.0625 C-0.07909701 3.69095496 -2.56508376 2.07386276 -5.125 0.0625 C-3.125 -0.9375 -3.125 -0.9375 0 0 Z " fill="#E0EFF7" transform="translate(203.125,211.9375)"/>
<path d="M0 0 C-1.65 1.65 -3.3 3.3 -5 5 C-5 3.68 -5 2.36 -5 1 C-5.99 0.67 -6.98 0.34 -8 0 C-5.13822943 -1.43088528 -3.06624227 -0.59991697 0 0 Z " fill="#3084D3" transform="translate(282,205)"/>
<path d="M0 0 C-0.33 0.99 -0.66 1.98 -1 3 C-2.32303717 3.3721042 -3.65737935 3.70630173 -5 4 C-5.33 4.66 -5.66 5.32 -6 6 C-7.32 5.67 -8.64 5.34 -10 5 C-8.90241493 4.15801693 -7.79664683 3.32669329 -6.6875 2.5 C-6.07261719 2.0359375 -5.45773437 1.571875 -4.82421875 1.09375 C-3 0 -3 0 0 0 Z " fill="#DCEEF9" transform="translate(293,199)"/>
<path d="M0 0 C0.33 0.66 0.66 1.32 1 2 C0.22265625 3.9453125 0.22265625 3.9453125 -0.9375 6.125 C-1.31777344 6.84945312 -1.69804687 7.57390625 -2.08984375 8.3203125 C-2.39019531 8.87460938 -2.69054687 9.42890625 -3 10 C-3.33 10 -3.66 10 -4 10 C-4.41176754 6.39703406 -4.1535853 5.21597933 -2 2.1875 C-1.34 1.465625 -0.68 0.74375 0 0 Z " fill="#418AC9" transform="translate(384,138)"/>
<path d="M0 0 C1.48117801 0.28127421 2.95993249 0.57533732 4.4375 0.875 C5.67306641 1.11863281 5.67306641 1.11863281 6.93359375 1.3671875 C7.61550781 1.57601562 8.29742187 1.78484375 9 2 C9.33 2.66 9.66 3.32 10 4 C7.03 3.67 4.06 3.34 1 3 C0.67 2.01 0.34 1.02 0 0 Z " fill="#50C8E0" transform="translate(122,112)"/>
<path d="M0 0 C-1.28965176 1.37562854 -2.62689293 2.70766393 -4 4 C-4.66 4 -5.32 4 -6 4 C-6.33 3.01 -6.66 2.02 -7 1 C-3.375 -1.125 -3.375 -1.125 0 0 Z " fill="#2952B4" transform="translate(291,368)"/>
<path d="M0 0 C0 2.95274099 -0.43891831 4.49058403 -1.5 7.1875 C-1.7784375 7.90292969 -2.056875 8.61835938 -2.34375 9.35546875 C-2.5603125 9.89816406 -2.776875 10.44085938 -3 11 C-3.33 11 -3.66 11 -4 11 C-4.17754126 7.09409237 -4.20731737 4.31097606 -2 1 C-1.34 0.67 -0.68 0.34 0 0 Z " fill="#3569BA" transform="translate(373,270)"/>
<path d="M0 0 C0.99 0 1.98 0 3 0 C3 2.31 3 4.62 3 7 C2.01 6.67 1.02 6.34 0 6 C0 5.34 0 4.68 0 4 C-0.33 3.01 -0.66 2.02 -1 1 C-0.67 0.67 -0.34 0.34 0 0 Z " fill="#0957CE" transform="translate(370,264)"/>
<path d="M0 0 C3.465 1.98 3.465 1.98 7 4 C7 4.33 7 4.66 7 5 C5.35 5 3.7 5 2 5 C1.34 3.35 0.68 1.7 0 0 Z M0 5 C0.66 5 1.32 5 2 5 C1.67 5.66 1.34 6.32 1 7 C0.67 6.34 0.34 5.68 0 5 Z " fill="#E9F7FB" transform="translate(130,160)"/>
<path d="M0 0 C1.65 0 3.3 0 5 0 C5.33 1.32 5.66 2.64 6 4 C5.01 4.495 5.01 4.495 4 5 C3.67 4.34 3.34 3.68 3 3 C2.01 3 1.02 3 0 3 C0 2.01 0 1.02 0 0 Z " fill="#0C98F1" transform="translate(260,148)"/>
<path d="M0 0 C-2.71182212 2.60334924 -3.89133813 2.99456691 -7.75 3.1875 C-8.8225 3.125625 -9.895 3.06375 -11 3 C-8.15930939 0.15930939 -3.81147953 -1.90573977 0 0 Z " fill="#4E98CE" transform="translate(384,111)"/>
<path d="M0 0 C0.66 0.66 1.32 1.32 2 2 C-3.17578125 5.22265625 -3.17578125 5.22265625 -5 6 C-5.99 5.67 -6.98 5.34 -8 5 C-4.04 2.525 -4.04 2.525 0 0 Z " fill="#E0EDF8" transform="translate(290,369)"/>
<path d="M0 0 C0.66 0 1.32 0 2 0 C2.33 0.99 2.66 1.98 3 3 C1.6875 4.5 1.6875 4.5 0 6 C-0.99 6 -1.98 6 -3 6 C-2 3 -2 3 0 0 Z " fill="#1E55BB" transform="translate(339,321)"/>
<path d="M0 0 C0 0.99 0 1.98 0 3 C-3 5 -3 5 -6 5 C-3.74193548 0 -3.74193548 0 0 0 Z " fill="#2D7CCE" transform="translate(304,212)"/>
<path d="M0 0 C0.66 0 1.32 0 2 0 C1.45276317 3.37462715 0.9451 5.08235 -1 8 C-1.66 8 -2.32 8 -3 8 C-2.67 6.68 -2.34 5.36 -2 4 C-1.34 4 -0.68 4 0 4 C0 2.68 0 1.36 0 0 Z " fill="#0B51CB" transform="translate(353,301)"/>
<path d="M0 0 C0.33 0 0.66 0 1 0 C1.36923077 6.52307692 1.36923077 6.52307692 -0.5 8.9375 C-0.995 9.288125 -1.49 9.63875 -2 10 C-1.54177532 6.53058454 -1.10868317 3.32604951 0 0 Z " fill="#C2D7EE" transform="translate(378,256)"/>
<path d="M0 0 C0.99 0 1.98 0 3 0 C1.8141763 3.37503669 0.72426311 5.64722731 -2 8 C-2.20086443 4.28400809 -2.1519437 3.22791555 0 0 Z " fill="#E6F2FC" transform="translate(283,225)"/>
<path d="M0 0 C2.31 0.33 4.62 0.66 7 1 C7 1.66 7 2.32 7 3 C4.69 2.67 2.38 2.34 0 2 C0 1.34 0 0.68 0 0 Z " fill="#0B77E7" transform="translate(341,195)"/>
<path d="M0 0 C3.91211733 1.15585285 6.8745041 2.35534962 10 5 C8.51793505 4.745504 7.03931385 4.47088238 5.5625 4.1875 C4.73878906 4.03667969 3.91507813 3.88585937 3.06640625 3.73046875 C2.38449219 3.48941406 1.70257813 3.24835938 1 3 C0.67 2.01 0.34 1.02 0 0 Z " fill="#54B5DC" transform="translate(132,181)"/>
<path d="M0 0 C0.66 0.33 1.32 0.66 2 1 C0.8125 2.5 0.8125 2.5 -1 4 C-3.6875 4.1875 -3.6875 4.1875 -6 4 C-3.94766315 1.7522025 -2.99332739 0.9977758 0 0 Z " fill="#D6E9F7" transform="translate(336,177)"/>
<path d="M0 0 C5.66153846 1.47692308 5.66153846 1.47692308 7.375 4.125 C7.684375 5.053125 7.684375 5.053125 8 6 C5.0280615 4.87548273 2.66559313 3.77706209 0 2 C0 1.34 0 0.68 0 0 Z " fill="#35B0E1" transform="translate(143,165)"/>
<path d="M0 0 C1.48117801 0.28127421 2.95993249 0.57533732 4.4375 0.875 C5.67306641 1.11863281 5.67306641 1.11863281 6.93359375 1.3671875 C7.61550781 1.57601562 8.29742187 1.78484375 9 2 C9.33 2.66 9.66 3.32 10 4 C6.7 3.34 3.4 2.68 0 2 C0 1.34 0 0.68 0 0 Z " fill="#4FB1D9" transform="translate(217,134)"/>
</svg>
